<?xml version="1.0" standalone="no"?>
<!DOCTYPE svg PUBLIC "-//W3C//DTD SVG 1.1//EN" "http://www.w3.org/Graphics/SVG/1.1/DTD/svg11.dtd" >
<!--
2013-9-30: Created.
-->
<svg>
<metadata>
Created by iconfont
</metadata>
<defs>

<font id="iconfont" horiz-adv-x="1024" >
  <font-face
    font-family="iconfont"
    font-weight="500"
    font-stretch="normal"
    units-per-em="1024"
    ascent="896"
    descent="-128"
  />
    <missing-glyph />
    
    <glyph glyph-name="x" unicode="x" horiz-adv-x="1001"
d="M281 543q-27 -1 -53 -1h-83q-18 0 -36.5 -6t-32.5 -18.5t-23 -32t-9 -45.5v-76h912v41q0 16 -0.5 30t-0.5 18q0 13 -5 29t-17 29.5t-31.5 22.5t-49.5 9h-133v-97h-438v97zM955 310v-52q0 -23 0.5 -52t0.5 -58t-10.5 -47.5t-26 -30t-33 -16t-31.5 -4.5q-14 -1 -29.5 -0.5
t-29.5 0.5h-32l-45 128h-439l-44 -128h-29h-34q-20 0 -45 1q-25 0 -41 9.5t-25.5 23t-13.5 29.5t-4 30v167h911zM163 247q-12 0 -21 -8.5t-9 -21.5t9 -21.5t21 -8.5q13 0 22 8.5t9 21.5t-9 21.5t-22 8.5zM316 123q-8 -26 -14 -48q-5 -19 -10.5 -37t-7.5 -25t-3 -15t1 -14.5
t9.5 -10.5t21.5 -4h37h67h81h80h64h36q23 0 34 12t2 38q-5 13 -9.5 30.5t-9.5 34.5q-5 19 -11 39h-368zM336 498v228q0 11 2.5 23t10 21.5t20.5 15.5t34 6h188q31 0 51.5 -14.5t20.5 -52.5v-227h-327z" />
    

    
    <glyph glyph-name="gouwuche" unicode="&#58883;" d="M892.326912 593.935104c17.024 0 29.943808-2.248704 39.371776-6.700032 9.339904-4.473856 16.062464-9.842688 20.076544-16.54272 4.017152-6.700032 5.807104-13.39904 5.369856-21.016576-0.437248-7.595008-1.352704-13.857792-3.098624-19.20512l-11.655168-33.08544-19.20512-54.974464-21.475328-59.449344c-6.677504-19.663872-12.04736-35.311616-15.627264-46.485504-8.075264-23.678976-17.896448-40.22272-29.94176-49.606656-12.090368-9.38496-26.84416-13.857792-44.260352-13.857792l-30.860288 0-58.969088 0-76.864512 0L560.684032 273.011456 335.894528 273.011456l13.836288-80.44544 456.344576 0c29.070336 0 43.824128-12.068864 43.824128-36.665344 0-12.04736-3.142656-22.347776-8.99072-30.83776-5.325824-8.487936-16.93696-12.96384-33.958912-12.96384l-43.342848 0-84.023296 0L575.0016 112.099072 469.065728 112.099072l-86.728704 0-50.0224 0c-12.091392 0-22.347776 2.685952-30.42304 8.05376-8.031232 5.368832-14.753792 12.526592-20.1216 21.016576-5.80608 8.489984-9.821184 17.87392-13.400064 28.152832-3.098624 10.278912-5.805056 19.663872-7.595008 28.611584l-4.932608 25.905152-10.258432 51.418112-12.96384 68.834304-14.316544 76.428288L178.977792 621.650688l-67.961856 0c-8.90368 0-16.497664 2.226176-22.347776 6.700032-6.198272 4.473856-11.173888 9.821184-15.188992 16.084992-3.579904 6.262784-6.678528 12.96384-8.031232 20.122624-1.308672 7.136256-2.226176 13.857792-2.226176 19.662848 0 12.069888 4.016128 21.890048 12.091392 29.50656 8.467456 7.595008 19.20512 11.609088 33.041408 11.609088l20.1216 0 18.332672 0 22.347776 0 30.816256 0c12.090368 0 21.910528-1.788928 29.068288-5.367808 7.158784-3.579904 12.96384-8.031232 17.461248-13.400064 4.015104-5.367808 7.113728-11.173888 8.90368-16.978944l4.452352-15.21152c1.396736-4.91008 2.270208-11.609088 3.579904-20.099072l3.579904-26.386432 5.41184-33.957888L892.326912 593.935104zM739.90656 86.191872c11.610112 0 22.785024-2.246656 33.08544-6.263808 10.73664-4.015104 19.642368-9.84064 27.281408-17.436672 7.593984-7.595008 13.836288-16.084992 18.28864-26.36288 4.49536-10.279936 6.720512-21.016576 6.720512-32.191488s-2.226176-21.890048-6.720512-32.169984c-4.453376-10.277888-10.694656-18.767872-18.28864-26.384384-7.63904-7.596032-16.543744-13.401088-27.281408-17.874944-10.300416-4.473856-21.475328-6.700032-33.08544-6.700032-11.173888 0-22.347776 2.226176-32.606208 6.700032-10.257408 4.473856-19.249152 10.278912-26.406912 17.874944-7.596032 7.616512-13.838336 16.106496-18.28864 26.384384-4.496384 10.279936-6.72256 20.996096-6.72256 32.169984s2.2272 21.910528 6.72256 32.191488c4.451328 10.277888 10.692608 18.767872 18.28864 26.36288 7.15776 7.596032 16.149504 13.421568 26.406912 17.436672C717.558784 83.945216 728.732672 86.191872 739.90656 86.191872zM363.131904 87.9808c11.609088 0 22.347776-2.246656 32.648192-6.262784 10.258432-4.036608 19.20512-9.842688 27.236352-17.436672 7.595008-7.595008 13.88032-16.084992 17.896448-26.363904 4.451328-10.278912 6.721536-21.016576 6.721536-32.191488s-2.270208-21.889024-6.721536-32.16896c-4.016128-10.279936-10.302464-18.7904-17.896448-26.385408-8.031232-7.596032-16.978944-13.400064-27.236352-17.87392-10.300416-4.473856-21.039104-6.700032-32.648192-6.700032-12.048384 0-23.222272 2.226176-33.086464 6.700032-9.821184 4.473856-18.768896 10.277888-26.800128 17.87392-7.595008 7.595008-13.88032 16.105472-17.896448 26.385408-4.451328 10.279936-6.720512 20.995072-6.720512 32.16896s2.269184 21.911552 6.720512 32.191488c4.016128 10.278912 10.302464 18.768896 17.896448 26.363904 8.031232 7.593984 16.978944 13.400064 26.800128 17.436672C339.909632 85.734144 351.08352 87.9808 363.131904 87.9808z"  horiz-adv-x="1024" />

    
    <glyph glyph-name="facebook" unicode="&#58901;" d="M635.108 703.719h105.244v157.565h-134.499v-0.663c-176.585-6.178-212.85-104.747-215.992-208.291h-0.362v-109.453h-105.239v-157.585h105.24v-479.227h188.815v479.226h135.279l26.757 157.585h-162.037v97.824c0 34.816 23.383 63.019 56.793 63.019z"  horiz-adv-x="1024" />

    
    <glyph glyph-name="weixin" unicode="&#58884;" d="M690.665 541.417c11.584 0 23.024-0.851 34.404-2.122-30.91 143.967-184.816 250.915-360.507 250.915-196.401 0-357.302-133.871-357.302-303.862 0-98.124 53.525-178.701 142.989-241.196l-35.734-107.484 124.877 62.638c44.718-8.853 80.566-17.937 125.168-17.937 11.207 0 22.329 0.548 33.363 1.414-6.991 23.889-11.035 48.906-11.035 74.857 0.002 156.099 134.038 282.775 303.776 282.775zM498.538 638.2860000000001c26.896 0 44.718-17.693 44.718-44.583 0-26.779-17.822-44.715-44.718-44.715-26.779 0-53.643 17.937-53.643 44.715 0.001 26.892 26.865 44.583 53.643 44.583zM248.494 548.9860000000001c-26.78 0-53.817 17.937-53.817 44.715 0 26.892 27.038 44.583 53.817 44.583 26.778 0 44.601-17.693 44.601-44.583 0-26.778-17.823-44.715-44.601-44.715zM1016.739 262.94399999999985c0 142.841-142.93 259.279-303.484 259.279-169.999 0-303.89-116.439-303.89-259.279 0-143.099 133.891-259.276 303.89-259.276 35.588 0 71.495 8.985 107.228 17.937l97.985-53.669-26.866 89.285c71.727 53.801 125.136 125.148 125.136 205.723zM614.749 307.64599999999984c-17.794 0-35.761 17.692-35.761 35.745 0 17.807 17.968 35.732 35.761 35.732 27.011 0 44.718-17.925 44.718-35.732 0-18.053-17.708-35.745-44.718-35.745zM811.267 307.64599999999984c-17.68 0-35.501 17.692-35.501 35.745 0 17.807 17.822 35.732 35.501 35.732 26.779 0 44.716-17.925 44.716-35.732 0.001-18.053-17.937-35.745-44.716-35.745z"  horiz-adv-x="1024" />

    
    <glyph glyph-name="qq" unicode="&#58925;" d="M199.605076 449.7929173333333L197.926785 454.9626603333333 196.584152 461.74308733333334 195.643695 465.4699683333333 195.643695 470.13726833333334 195.643695 475.71019333333334 195.643695 480.7448603333333 197.255468 486.7209683333333 198.934783 493.0992363333333 201.08279 499.7128643333333 204.004449 507.1318343333333 207.864518 514.8537023333333 213.303614 522.5745473333334 213.303614 527.9806743333334 213.839848 533.0501333333333 214.646246 539.9318673333332 216.995854 547.6189433333334 219.144885 555.9783323333334 220.856946 559.8402893333333 222.837125 563.3973023333333 225.389355 567.3933123333334 228.142161 570.3138283333333 228.142161 575.7516773333333 228.142161 581.8618393333334 228.142161 589.4486313333333 229.753935 599.2519043333333 231.364685 610.6668853333333 234.252573 624.3628153333333 238.213954 638.5315133333334 241.16836 646.3864113333334 244.088995 654.8808763333334 247.278771 662.8360583333333 251.106093 671.3295003333334 254.999933 680.6293063333334 259.499595 689.3570853333333 264.535491 698.6906613333333 270.91402 707.9566983333334 273.834655 713.2594713333333 276.990661 717.6586643333334 283.806159 727.4946843333333 290.788464 737.2969343333334 298.778766 747.3693373333333 307.306326 757.2391253333333 316.572743 766.9073223333334 326.241336 776.8446483333333 337.924902 787.5873173333333 345.37897 794.0996373333334 354.408993 801.1502173333333 363.575123 807.3944323333333 373.511833 813.3695163333333 383.047391 818.6743363333334 393.790499 823.0387373333333 405.204924 828.4765863333333 416.551808 832.2034673333333 427.899716 836.0644013333333 440.120539 839.8915673333333 452.341363 842.8120823333334 465.233502 845.1963863333333 478.258677 847.3443063333333 491.084299 849.0562973333333 503.975416 850.8020573333333 517.673954 851.5746533333333 530.698105 851.5746533333333 544.196067 851.5746533333333 558.161699 851.5746533333333 571.659661 849.8626623333333 585.22107 848.2499323333334 599.052643 846.8070703333333 611.878266 843.7187323333334 625.440698 840.8319853333334 638.166032 837.5410323333333 652.098917 833.7814053333333 664.856998 829.2829513333334 677.075775 824.1132083333333 690.10402 818.6743363333334 702.020909 812.6992513333333 713.570416 806.0518543333333 724.883529 798.7331683333333 734.686181 791.9854873333334 739.185843 788.1245533333333 743.954645 785.3718593333333 753.017416 777.6499903333333 760.674107 770.1972513333334 768.260186 762.5091523333333 775.714254 754.0167343333334 781.823642 745.7913983333333 789.075087 737.2969343333334 794.178524 728.1659723333333 799.314709 720.0409213333334 804.787574 710.6091083333333 809.286213 702.3827493333333 816.940857 684.9937073333333 820.699614 675.9957763333333 823.622297 667.6026183333333 826.541909 658.6067343333333 829.16168 650.0785003333333 831.041571 642.7946063333334 833.391178 634.1660883333334 837.555181 618.7898893333333 840.2077 605.3620663333334 841.917714 592.3364013333332 843.396452 581.8618393333334 845.747083 565.9484043333333 846.283318 563.3973023333333 848.162185 560.5105553333333 853.200128 552.2524743333333 856.421627 546.7122943333334 859.309516 540.8385163333332 863.002779 534.6270483333333 866.225302 527.1732863333333 868.305769 519.4862093333334 870.588859 511.12682133333334 872.334691 502.49932633333333 873.141089 498.2700023333333 873.812405 493.0992363333333 873.812405 488.56803633333334 873.141089 484.0358133333333 873.141089 478.4618643333333 871.797433 473.0240153333333 869.382331 462.54842933333333 866.627478 457.2446333333333 864.614553 451.2695483333333 864.614553 449.7929173333333 865.553986 447.9448263333333 868.305769 443.5487033333333 880.259499 425.8895083333333 889.725469 412.6622523333333 894.225131 403.73185933333326 900.335542 394.06468533333333 905.638532 383.45504633333337 911.750991 372.0421123333334 917.860379 359.28353133333337 924.743418 344.8150043333334 928.602464 335.91735733333337 932.161669 327.3236323333334 935.25218 318.1241093333334 938.274127 309.9345893333334 940.556194 301.2723023333334 942.904778 293.1810203333333 945.859184 277.3699163333333 948.209814 261.1883753333334 949.820564 246.8876713333334 949.820564 239.03174933333332 949.820564 232.65245933333335 949.820564 226.67737433333332 948.746049 219.49274133333336 947.20284 207.17111133333333 945.054832 196.0273063333334 941.763744 185.9549043333334 940.556194 181.82586333333336 938.274127 176.92422633333342 936.324649 173.46545133333336 933.773442 169.20338133333337 931.489329 166.54994833333342 928.602464 163.0921963333334 926.051257 160.3405263333334 923.300498 157.92347733333338 920.008387 156.47856933333333 917.052957 155.03570733333333 914.637856 154.23036533333334 912.522595 154.23036533333334 910.943569 154.23036533333334 908.561215 155.03570733333333 904.027782 157.25218833333338 901.948339 158.7298423333334 899.799308 160.3405263333334 897.413883 162.45570033333343 895.031529 164.8379573333334 891.070148 169.20338133333337 886.368887 175.44759633333342 882.675624 181.82586333333336 878.983384 186.9956063333334 875.391432 192.97171433333335 870.320742 203.57930633333342 864.614553 214.62487333333343 863.943236 214.99531033333335 863.002779 214.99531033333335 860.652149 213.28331933333334 859.309516 210.36280333333332 857.09499 206.80272133333335 853.200128 196.0273063333334 847.357833 180.75139233333334 839.837248 162.45570033333343 834.198599 153.29097033333335 828.254994 143.75682633333338 821.236872 133.01313433333337 813.783828 122.4720573333334 809.957529 117.70447333333334 805.324832 112.53370733333338 794.680988 102.06016833333342 795.622468 101.12077333333332 797.064366 99.6431193333334 802.369403 96.48724333333337 824.528983 85.87862733333338 834.198599 80.43975533333332 843.396452 75.1359593333334 852.527788 68.48856233333333 860.652149 61.57305833333339 864.614553 58.51848933333338 867.569982 54.92566133333332 870.588859 50.83039033333341 873.141089 46.29816733333337 874.485769 42.57230933333335 876.163036 38.07385533333343 876.836399 34.24566633333336 877.639727 29.714467333333346 876.836399 26.657851333333383 876.836399 23.638074333333407 876.163036 20.41466033333336 874.485769 17.526890333333426 873.812405 15.24491733333332 872.334691 12.492223333333413 868.305769 7.0195823333333465 864.614553 2.62141233333341 861.727687-0.6674936666665872 859.309516-3.0845436666666046 853.200128-7.5829976666666425 846.283318-11.443931666666685 838.898837-15.17081266666662 831.041571-18.728848666666636 822.178352-22.153854666666575 817.479138-23.629461666666657 813.247593-24.839009666666584 803.040719-27.222289666666597 792.431669-29.471516666666616 781.823642-31.75553666666667 770.275159-33.602603666666596 758.323476-34.10504766666668 746.101629-35.581678666666676 734.014865-35.581678666666676 721.257807-35.581678666666676 708.164067-35.581678666666676 694.467576-34.77633666666668 681.708472-33.602603666666596 668.01198-31.75553666666667 654.382007-30.277882666666642 640.013176-28.264015666666637 626.113038-24.839009666666584 612.550605-22.153854666666575 599.052643-18.326689666666653 585.22107-13.425052666666602 571.659661-9.296011666666573 564.540228-6.911708666666641 558.161699-4.628712666666615 554.133801-3.0845436666666046 550.171397-2.2792016666666086 545.000419-2.2792016666666086 538.89103-2.2792016666666086 525.866879-1.3398066666666182 519.251957-0.6674936666665872 510.758167 0.2708773333333738 505.319072-4.628712666666615 497.865004-9.296011666666573 487.794235-14.230394666666598 476.647927-20.341578666666578 469.866199-23.629461666666657 462.815331-26.282894666666607 447.170384-32.66218566666657 438.676595-34.77633666666668 429.78063-37.193385666666586 417.425748-39.543919666666625 409.703563-40.214185666666594 401.511661-40.885474666666596 392.984101-41.82691566666665 383.047391-42.22907566666663 373.511833-42.22907566666663 363.575123-42.22907566666663 342.457311-42.22907566666663 319.527149-41.82691566666665 297.302075-39.543919666666625 286.021708-37.99872766666658 275.143518-36.38804366666659 264.535491-34.77633666666668 253.926441-32.66218566666657 244.088995-29.471516666666616 234.252573-27.222289666666597 225.389355-23.629461666666657 216.995854-20.341578666666578 209.207151-16.580928666666637 202.426446-12.485657666666611 195.643695-7.5829976666666425 193.361629-5.1669716666666545 190.339682-2.2792016666666086 188.056592 0.2708773333333738 185.975102 3.1586473333334197 184.094188 6.112932333333333 182.617497 9.000703333333377 180.502236 15.24491733333332 179.730632 18.43456233333336 178.790175 22.026367333333383 178.790175 25.317320333333328 179.730632 29.042154333333315 179.730632 32.76903633333336 180.502236 36.49489333333338 180.502236 38.745144333333315 180.502236 43.912840333333406 180.871665 47.91089733333342 182.617497 52.44209733333332 184.094188 56.94055133333336 186.7815 62.37840033333339 188.727908 64.49459833333333 190.339682 66.87685433333343 194.569179 72.04762133333338 197.926785 74.73379933333342 201.08279 76.57984433333343 204.004449 78.96210133333341 208.669893 80.43975533333332 212.363157 82.6572593333334 216.995854 85.07328533333339 222.30089 86.65224733333332 227.604904 88.26293133333343 233.715315 89.57378633333337 239.556586 90.37912833333337 246.473396 91.31750033333333 253.926441 91.85575933333337 255.906619 92.52602433333334 256.308795 92.52602433333334 257.250276 93.33136633333334 257.250276 94.20424733333334 255.906619 96.08508333333339 251.911468 97.9648973333334 241.974758 106.55862233333335 235.327089 111.86344233333341 227.604904 118.64489233333336 219.816201 126.19893833333333 211.69184 135.89988133333338 202.426446 146.7776263333334 198.934783 152.61968133333335 194.301062 158.7298423333334 190.339682 165.77837533333332 186.7815 173.46545133333336 181.94618 180.75139233333334 178.790175 189.14557233333335 175.063141 197.4701683333334 171.33713 206.80272133333335 168.584324 215.66557633333332 166.033117 226.67737433333332 165.227742 227.08055633333333 164.455114 227.08055633333333 164.051915 227.88692233333336 163.111458 227.88692233333336 161.533455 227.08055633333333 160.72808 226.67737433333332 159.654588 224.8303063333334 159.251389 222.58107933333338 158.446014 220.56618933333334 157.03584 217.27728333333334 152.469661 209.1532553333334 150.11903 204.25059533333342 146.39302 200.0212713333334 142.397869 194.85152833333336 138.032265 189.14557233333335 133.399568 184.07406733333335 127.960473 179.17345333333333 122.89183 174.5409463333334 117.352446 170.94811833333335 111.242035 167.08820733333334 105.400764 164.8379573333334 98.484977 163.0921963333334 91.703249 162.45570033333343 91.031933 162.45570033333343 90.091476 162.45570033333343 88.547243 163.0921963333334 87.337646 165.77837533333332 85.323697 167.08820733333334 82.704949 173.46545133333336 81.094199 176.92422633333342 79.348367 181.82586333333336 77.904423 186.9956063333334 77.131795 192.03231933333336 74.982764 203.57930633333342 74.177389 210.36280333333332 74.177389 217.27728333333334 74.177389 232.65245933333335 74.982764 249.23615933333338 76.32642 257.7643933333334 77.904423 266.4921713333333 79.348367 275.9260313333334 81.899574 284.6886023333334 84.786439 294.79272833333334 87.740845 304.59702433333337 91.703249 314.7011503333333 95.42926 324.3703703333334 100.565444 334.20536633333336 105.400764 344.8150043333334 111.242035 354.78507733333333 118.124051 365.5277453333334 125.141149 375.19798933333334 132.460135 385.93963433333334 138.570547 393.3923733333333 146.39302 402.0208913333333 154.618692 410.6483853333333 158.446014 414.7436573333333 163.111458 419.41095633333333 169.859416 425.2847343333333 176.776226 431.2270733333333 188.056592 441.33222233333333 196.584152 447.5436903333333Z"  horiz-adv-x="1024" />

    
    <glyph glyph-name="phone" unicode="&#58908;" d="M160.33706667 742.59306667c-72.7584-76.22293333-71.02613333-131.65653333 8.6624-291.03253334 114.33386667-228.6688 372.4512-446.94186667 566.4736-478.1248 57.16693333-8.6624 71.02613333-3.46453333 124.72853333 48.50453334 32.9152 31.18186667 58.8992 69.2928 58.8992 86.61653333 0 43.3088-60.63253333 112.6016-121.26293333 136.85546667-48.50453333 20.78826667-58.8992 19.056-103.94026667-15.59146667-27.71733333-19.056-62.36373333-36.37866667-76.22293333-36.37866667-38.112 0-242.52693333 197.48586667-275.44106667 263.3152-24.2528 51.97013333-24.2528 58.8992 6.93013333 97.01013334 46.77333333 60.63253333 41.57653333 114.33386667-20.78826666 185.36-67.5616 76.22293333-97.01013333 76.22293333-168.03733334 3.46453333z"  horiz-adv-x="1024" />

    
    <glyph glyph-name="yan" unicode="&#58943;" d="M960.088839 300.138146c0-85.86767-184.750154-268.985244-448.089351-268.985244C255.385735 31.097644 63.910137 211.243537 63.910137 300.138146c0 88.842421 192.31986 268.708951 448.089351 268.708951C777.353658 568.848121 960.145124 388.980567 960.088839 300.138146L960.088839 300.138146 960.088839 300.138146zM512.391431 519.745796c-119.279411 0-215.914175-98.367355-215.914175-219.718167 0-121.350812 96.691048-219.774449 215.914175-219.774449 119.282481 0 215.974552 98.423637 215.974552 219.774449C728.365983 421.378441 631.672888 519.745796 512.391431 519.745796L512.391431 519.745796 512.391431 519.745796zM511.999488 440.265604c-75.950851 0-137.498078-62.665225-137.498078-139.958612 0-77.29134 61.54825-139.900284 137.498078-139.900284s137.498078 62.665225 137.498078 139.961682C649.497566 377.655637 587.95034 440.265604 511.999488 440.265604L511.999488 440.265604 511.999488 440.265604zM511.999488 440.265604"  horiz-adv-x="1024" />

    
    <glyph glyph-name="point" unicode="&#58947;" d="M708.98143005 394.86439491C708.98143005 284.77857077 619.90671705 195.70892715000002 509.8274107 195.70892715000002c-110.08003057 0-199.15401936 89.06964362-199.15401936 199.15546776C310.67339134 504.94152868 399.74810434 594.01696586 509.8274107 594.01696586 619.90816546 594.01986265 708.98143005 504.94152868 708.98143005 394.86439491z"  horiz-adv-x="1024" />

    
    <glyph glyph-name="camera" unicode="&#58919;" d="M864 266.496l-160 64.096 0 128.256 160 64.128c17.696 0 32-14.368 32-32.064l0-192.384c0-17.696-14.304-32.032-32-32.032zM560 490.944c-79.52 0-144 64.608-144 144.288s64.48 144.288 144 144.288 144-64.608 144-144.288c0-79.712-64.48-144.288-144-144.288zM272 490.944c-79.52 0-144 64.608-144 144.288s64.48 144.288 144 144.288 144-64.608 144-144.288c0-79.712-64.48-144.288-144-144.288zM672 490.944l0-288.576-178.624 0c-1.664-26.624-13.312-49.568-30.624-62.56l18.048 0 127.648-287.872-31.808 0-42.56 96-85.12 0 0-159.936-31.904 0 0 159.936-86.464 0-43.232-96-31.84 0 129.664 287.872 12.064 0c-17.312 12.992-28.96 35.936-30.624 62.56l-206.624 0 0 288.576 512 0zM417.024 129.888c-1.312 0.32-2.528 0.992-3.808 1.44l-68.224-151.424 72.032 0 0 149.984zM448.928 132.192l0-152.32 70.944 0-68.032 153.44c-0.928-0.448-1.888-0.736-2.912-1.12z"  horiz-adv-x="1024" />

    
    <glyph glyph-name="youtube" unicode="&#59095;" d="M618.858 227.841v-120.567q0-38.288-22.27-38.288-13.128 0-25.708 12.58v171.983q12.58 12.58 25.708 12.58 22.27 0 22.27-38.288zM811.978 227.256v-26.293h-51.416v26.293q0 38.836 25.708 38.836t25.708-38.836zM260.008 351.81h61.143v53.72h-178.273v-53.72h60.009v-325.133h57.157v325.133zM424.568 26.676h50.867v282.275h-50.867v-215.975q-17.151-23.989-32.583-23.989-10.276 0-11.995 11.995-0.585 1.719-0.585 20.003v208.003h-50.867v-223.399q0-28.012 4.571-41.725 6.838-21.137 33.131-21.137 27.427 0 58.291 34.85v-30.864zM669.689 111.26v112.559q0 41.725-5.156 56.572-9.727 31.998-40.555 31.998-28.56 0-53.134-30.864v124.005h-50.867v-378.816h50.867v27.427q25.708-31.413 53.134-31.413 30.864 0 40.555 31.413 5.156 15.432 5.156 57.157zM862.845 116.965v7.423h-52.001q0-29.145-1.134-34.85-3.986-20.552-22.856-20.552-26.293 0-26.293 39.421v49.697h102.283v58.839q0 45.126-15.432 66.299-22.27 29.145-60.558 29.145-38.836 0-61.143-29.145-16.017-21.137-16.017-66.299v-98.846q0-45.126 16.566-66.299 22.27-29.145 61.692-29.145 41.14 0 61.692 30.279 10.276 15.432 11.995 30.864 1.134 5.156 1.134 33.131zM515.441 638.655v119.982q0 39.421-24.574 39.421t-24.574-39.421v-119.982q0-40.006 24.574-40.006t24.574 40.006zM926.255 209.52q0-133.696-14.847-199.995-8.009-33.716-33.131-56.572t-58.291-26.293q-105.135-11.995-317.125-11.995t-317.125 11.995q-33.131 3.437-58.583 26.293t-32.839 56.572q-14.847 63.995-14.847 199.995 0 133.696 14.847 199.995 8.009 33.716 33.131 56.572t58.839 26.842q104.55 11.446 316.54 11.446t317.125-11.446q33.131-3.986 58.583-26.842t32.839-56.572q14.847-63.995 14.847-199.995zM356.001 938.629h58.291l-69.152-227.97v-154.832h-57.157v154.832q-8.009 42.274-34.85 121.152-21.137 58.839-37.154 106.854h60.558l40.555-150.261zM567.442 748.362v-99.979q0-46.296-16.017-67.433-21.137-29.145-60.558-29.145-38.288 0-60.009 29.145-16.017 21.722-16.017 67.433v99.979q0 45.711 16.017 66.848 21.722 29.145 60.009 29.145 39.421 0 60.558-29.145 16.017-21.137 16.017-66.848zM758.843 840.918v-285.127h-52.001v31.413q-30.279-35.435-58.839-35.435-26.293 0-33.716 21.137-4.571 13.713-4.571 42.859v225.118h52.001v-209.686q0-18.87 0.585-20.003 1.719-12.58 11.995-12.58 15.432 0 32.583 24.574v217.694h52.001z"  horiz-adv-x="1024" />

    
    <glyph glyph-name="gps" unicode="&#58942;" d="M525.608949-195.64245c-3.989871-3.148713-8.798387-4.730745-13.608949-4.730745s-9.616008 1.582031-13.608949 4.730745c-14.775518 11.626805-361.863584 332.791455-361.863584 620.696608 0 206.958562 168.447457 375.318014 375.472534 375.318014 207.028147 0 375.472534-168.359452 375.472534-375.318014C887.472534 137.150028 540.383444-184.015645 525.608949-195.64245zM512 600.360835c-96.765881 0-175.210487-78.443583-175.210487-175.210487 0-96.763834 78.443583-175.207417 175.210487-175.207417s175.210487 78.444607 175.210487 175.207417C687.209464 521.916229 608.765881 600.360835 512 600.360835z"  horiz-adv-x="1024" />

    
    <glyph glyph-name="phone2" unicode="&#58935;" d="M878.08 225.27999999999997c-69.12 56.32-174.08 92.16-202.24 58.88-25.6-30.72-48.64-53.76-76.8-51.2-97.28 12.8-168.96 102.4-199.68 148.48-66.56 99.84-51.2 125.44-23.04 140.8 51.2 28.16 76.8 110.08 23.04 171.52C348.16 755.2 256 934.4 135.68 839.68 23.04 750.08-5.12 640 61.44 483.84c64-148.48 391.68-565.76 691.2-583.68 156.16-7.68 245.76 140.8 248.32 184.32C1000.96 122.88 944.64 174.08000000000004 878.08 225.27999999999997L878.08 225.27999999999997zM926.72 84.48000000000002c-15.36-30.72-28.16-51.2-58.88-74.24-23.04-17.92-61.44-43.52-110.08-40.96C481.28-12.799999999999955 199.68 355.84000000000003 135.68 481.28c-30.72 64-48.64 145.92-40.96 189.44 12.8 56.32 38.4 87.04 79.36 117.76 56.32 40.96 112.64-40.96 168.96-130.56 20.48-33.28 35.84-64-12.8-94.72-40.96-25.6-51.2-87.04-17.92-156.16 46.08-97.28 189.44-248.32 291.84-245.76 56.32 2.56 89.6 46.08 104.96 61.44 20.48 20.48 76.8-12.8 117.76-43.52C875.52 145.91999999999996 934.4 97.27999999999997 926.72 84.48000000000002L926.72 84.48000000000002zM926.72 84.48000000000002"  horiz-adv-x="1024" />

    
    <glyph glyph-name="dizhi" unicode="&#58893;" d="M878.10263 142.309538M511.998465 747.953312c-197.642382 0-358.441649-157.923776-358.441649-351.993796 0-187.320293 321.199443-519.968485 334.847278-534.016433 6.149047-6.347568 14.69877-9.897418 23.594371-9.897418l0.725524 0c9.149381 0 17.798365 4.199649 23.798009 10.948353l111.230314 125.07974c147.777695 177.769776 222.688825 314.998207 222.688825 407.884734C870.441137 590.029536 709.643917 747.953312 511.998465 747.953312L511.998465 747.953312zM511.998465 235.985034c-90.007967 0-162.922626 71.589478-162.922626 159.974481 0 88.386026 72.913637 160.024623 162.922626 160.024623 90.011037 0 162.925696-71.638597 162.925696-160.024623C674.924161 307.574512 602.009502 235.985034 511.998465 235.985034L511.998465 235.985034zM511.998465 235.985034"  horiz-adv-x="1024" />

    
    <glyph glyph-name="search" unicode="&#58933;" d="M948.774203-0.36301800000001094L786.848277 161.82896800000003c26.100448 31.69384 47.938825 66.581418 63.651692 104.932888 19.974937 48.203862 30.893614 101.202936 30.893614 156.332535 0 54.597479-10.9197 105.997126-30.094412 154.202011l-0.799202 2.130524c-20.507056 49.004087-50.069349 93.481068-87.088474 130.766252l-1.863441 1.864464C724.526883 749.609908 678.985664 779.971403 629.183398 800.744519l0 0c-48.470945 19.974937-101.202936 31.426757-156.332535 31.426757-112.655779 0-214.925001-46.341445-288.963251-120.112612-37.818327-37.552268-67.912739-82.561367-88.952938-132.630716-19.707854-48.737004-30.893614-101.470019-30.893614-156.332535 0-54.330396 11.18576-106.796328 30.361495-154.469094l0.533143-1.863441c20.773116-50.335409 51.134611-95.611591 88.952938-132.896776l0 0c37.818327-37.818327 82.561367-67.912739 132.629693-88.419795l0 0c48.204885-20.240997 101.20396-30.893614 156.333558-30.893614s108.128673 10.652618 156.332535 30.893614c38.35147 15.712867 73.506131 37.286208 104.932888 63.384609l162.191986-162.191986c14.647605-14.381545 38.08541-14.381545 52.465932 0C963.687868-38.71448799999996 963.687868-15.011646000000042 948.774203-0.36301800000001094L948.774203-0.36301800000001094zM708.815039 187.12919L708.815039 187.12919 708.815039 187.12919l-0.799202-0.533143c-30.361495-30.627555-67.113537-55.128575-107.596554-72.439846-38.882566-15.712867-82.294284-25.035186-127.569444-25.035186-45.541219 0-88.686878 9.321296-127.836527 25.035186l0 0c-40.748053 17.311271-77.501118 42.345434-108.128673 72.972988l-0.26606 0 0.26606 0c-30.893614 31.426757-55.662741 67.64668-72.706929 108.661815l-0.533143 1.331321c-15.97995 38.883589-24.502044 81.762165-24.502044 125.973086 0 45.541219 8.788154 88.419795 25.034163 127.836527 17.045211 40.481993 41.547255 77.235059 72.706929 107.59553 60.455907 60.989049 143.549394 98.274234 235.964176 98.274234 45.275159 0 88.686878-9.321296 127.569444-25.034163 41.014112-17.311271 77.501118-41.813315 108.395756-73.240071l1.863441-1.598404c29.828352-29.828352 53.797253-66.315358 70.576405-105.997126l0.799202-2.130524c15.446807-38.883589 24.50102-80.962963 24.50102-125.706003 0-45.275159-9.055237-88.686878-25.301246-127.303384C764.475733 254.24375099999997 739.442594 217.49068499999998 708.815039 187.12919L708.815039 187.12919zM369.781416 666.782481L369.781416 666.782481c-15.97995-6.658653-31.159674-15.180747-44.74304-24.235984-13.849426-10.120498-27.164686-20.507056-38.883589-32.224935l0-0.26606c-12.251022-11.984962-23.436782-25.301246-32.492018-39.149649l0-0.26606c-9.853415-14.381545-18.10945-29.02915-24.502044-44.475957-4.79419-11.718903 0.533143-24.768103 12.251022-29.562293 11.18576-4.79419 24.502044 0.533143 29.29521 11.983939 5.060249 12.784164 11.718903 25.567305 19.707854 37.286208l0-0.533143c7.989975 11.983939 17.311271 22.63758 27.16571 33.024138 9.853415 9.854439 21.040199 19.175735 33.024138 26.632567 11.18576 8.256034 23.968901 14.647605 36.753065 19.974937 11.18576 5.326309 16.778128 18.376533 12.251022 29.828352C394.28346 666.516422 381.500319 671.309588 369.781416 666.782481L369.781416 666.782481zM714.939527 445.73197L714.939527 445.73197c-12.517081 0-22.370497-9.853415-22.370497-22.63758 0-29.02915-5.859451-56.993039-17.045211-84.158748l0-1.598404c-10.918677-25.035186-26.631544-48.470945-47.671743-69.777203-21.040199-20.773116-45.275159-36.220946-71.109548-47.405683-26.631544-10.9197-55.395658-17.044188-83.891665-17.044188-12.517081 0-22.63758-9.587356-22.63758-22.10546 0-12.252045 10.120498-22.63758 22.63758-22.63758 34.355459 0 68.978001 6.924713 101.470019 20.239973 30.893614 12.783141 60.188824 31.958876 85.49007 56.994062 25.035186 25.034163 43.677778 54.330396 56.994062 85.22401l0 0.798179c13.582343 32.492018 20.507056 66.847477 20.507056 101.470019C737.31207 435.878554 727.191572 445.73197 714.939527 445.73197L714.939527 445.73197z"  horiz-adv-x="1024" />

    
    <glyph glyph-name="star" unicode="&#58890;" d="M921.5541901439428 473.65099375247956C917.5961995422839 485.72537026405337 906.3334618389606 493.8417561739683 893.657871207595 493.8417561739683L638.7031507760287 493.8417561739683 559.9140860378742 734.6378924489021C556.0863580971957 746.6721883088351 544.8637010455133 754.78857421875 532.1079491108655 754.78857421875 519.4323584794998 754.78857421875 508.1696207761765 746.6721883088351 504.3018121838569 734.7280744582415L425.4225647121667 493.8417561739683 170.517945638299 493.8417561739683C157.8022743552923 493.8417561739683 146.56959659755228 485.72537026405337 142.66170735359196 473.65099375247956 138.70371675193303 461.69685992002485 143.04247607886794 448.4801772326231 153.29317099153997 441.12532877326015L359.55959594547744 292.3650005936622 280.8106118589639 51.43860165774822C276.8125406056642 39.44438644945615 281.15129993259904 26.347946441173463 291.442075496912 18.91293667852881 301.6025884002447 11.518006843328521 315.63090989589693 11.518006843328521 325.8415234327316 18.91293667852881L532.1079491108655 167.76344614326956 738.4144547164441 18.91293667852881C743.4746708422899 15.245532068610146 749.5168690890074 13.341688442230407 755.5991487115622 13.341688442230407 761.6313269764187 13.341688442230407 767.7136065989732 15.245532068610146 772.81390337646 18.91293667852881 783.0645975649356 26.347946441173463 787.4033576160668 39.44438644945615 783.4052856385708 51.43860165774822L704.7364635795354 292.3650005936622 910.882645854354 441.12532877326015C921.1233207851649 448.4801772326231 925.4219994604588 461.69685992002485 921.5541901439428 473.65099375247956Z"  horiz-adv-x="1080" />

    
    <glyph glyph-name="xinfeng" unicode="&#59044;" d="M673.28 416.597l270.336 259.776c7.68-7.488 12.416-17.856 12.416-29.376v-522.944c0-10.816-4.288-20.608-11.264-28.032l-271.488 320.576zM81.856 677.525c7.424 6.528 17.024 10.688 27.776 10.688h804.736c10.752 0 20.352-4.096 27.776-10.688l-430.144-333.312-430.144 333.312zM79.232 96.021c-6.912 7.36-11.264 17.216-11.264 28.032v522.88c0 11.52 4.736 21.888 12.416 29.376l270.336-259.712-271.488-320.576zM512 261.653l112.896 108.416 318.080-275.968c-7.488-6.976-17.472-11.392-28.544-11.392h-804.8c-11.072 0-21.056 4.352-28.544 11.392l318.080 275.968 112.832-108.416z"  horiz-adv-x="1024" />

    
    <glyph glyph-name="message" unicode="&#59430;" d="M513.804 812.724c104.478 0 212.554 0 317.042 0 86.464 0 122.487-39.631 122.487-126.097 0-169.328 0-338.658 0-507.986 0-82.863-39.624-122.491-122.487-122.491-25.22 0-54.042-3.604-79.265 0-82.863 10.808-154.914-3.604-205.356-79.263-21.612-28.821-46.832-28.821-72.052 0-28.822 28.823-54.042 57.647-82.863 82.866-14.411 14.408-25.22 36.027-7.207 54.039 18.012 18.019 36.027 14.411 54.042 0 25.22-21.616 43.232-64.848 75.658-61.244 25.22 3.604 46.832 39.628 72.052 61.244 14.411 14.411 36.031 14.411 54.039 14.411 64.853 0 129.701 0 190.951 0 36.023 0 54.039 14.411 54.039 54.042 0 169.326 0 335.050 0 504.379 0 36.027-14.411 54.042-54.039 54.042-216.171 0-428.727 0-644.888 0-36.027 0-50.438-18.012-50.438-50.438 0-169.328 0-335.057 0-504.383 0-39.628 14.411-61.247 57.643-57.643 25.22 0 54.042 0 79.259 0 18.015 0 32.423-14.411 32.423-32.423 0-18.015-10.807-32.426-28.822-36.027-46.835-3.604-93.67-10.808-140.506 7.207-39.631 14.408-64.85 46.832-64.85 93.667 0 183.741 0 367.48 0 547.616 0 64.848 43.232 104.478 115.29 104.478 111.685 0 219.768 0 327.849 0zM784.006 448.848c-3.604-32.423-21.62-50.438-50.436-50.438-32.426 0-54.042 21.616-50.442 54.042 0 28.823 21.62 50.438 50.442 50.438 32.421 0 50.436-21.616 50.436-54.042zM376.898 452.451c-3.604-32.423-21.616-50.438-50.438-50.438-32.423 0-54.042 18.012-54.042 50.438 0 28.822 18.015 50.438 46.836 50.438 36.031 0 54.042-18.015 57.647-50.438zM582.254 448.848c-3.604-28.822-25.22-50.438-50.442-46.836-32.421 0-54.039 21.616-50.436 54.039 0 28.823 21.616 50.438 50.436 46.835 28.823 0.004 46.838-21.612 50.442-54.039z"  horiz-adv-x="1024" />

    
    <glyph glyph-name="linkedin" unicode="&#59120;" d="M290.6 718.53333333c0-24.0003-8.7003-44.3997-26.1-61.2-17.3997-16.8003-39.8997-25.2-67.5-25.2-26.3997 0-47.9997 8.3997-64.8 25.2-16.8003 16.8003-25.2 37.1997-25.2 61.2 0 25.2 8.3997 45.9 25.2 62.1 16.8003 16.2 38.9997 24.3 66.6 24.3 27.6003 0 49.5-8.1 65.7-24.3 16.2-16.2 24.9003-36.9 26.1-62.1 0 0 0 0 0 0m-178.2-711c0 0 0 556.2 0 556.2 0 0 172.8 0 172.8 0 0 0 0-556.2 0-556.2 0 0-172.8 0-172.8 0 0 0 0 0 0 0m275.4 378c0 51.5997-1.1997 110.9997-3.6 178.2 0 0 149.4 0 149.4 0 0 0 9-77.4 9-77.4 0 0 3.6 0 3.6 0 36 60.0003 92.9997 90 171 90 60.0003 0 108.2997-20.0997 144.9-60.3 36.6003-40.2003 54.9-99.9 54.9-179.1 0 0 0-329.4 0-329.4 0 0-172.8 0-172.8 0 0 0 0 307.8 0 307.8 0 80.3997-29.4003 120.6-88.2 120.6-42.0003 0-71.3997-21.6-88.2-64.8-3.6-7.2-5.4-21.6-5.4-43.2 0 0 0-320.4 0-320.4 0 0-174.6 0-174.6 0 0 0 0 378 0 378 0 0 0 0 0 0"  horiz-adv-x="1024" />

    
    <glyph glyph-name="instagram" unicode="&#58887;" d="M178.868295 831.876564l666.258293 0c63.279209 0 115.042129-51.762921 115.042129-115.061572l0-666.25727c0-63.281255-51.762921-115.009384-115.042129-115.009384L178.868295-64.451662c-63.297628 0-115.096365 51.728128-115.096365 115.009384L63.771931 716.814991C63.771931 780.113643 115.570667 831.876564 178.868295 831.876564zM716.802968 732.31808c-22.25691 0-40.387849-18.201547-40.387849-40.405245l0-96.560196c0-22.222117 18.130939-40.370453 40.387849-40.370453l101.305267 0c22.186302 0 40.353057 18.148335 40.353057 40.370453l0 96.560196c0 22.204721-18.166755 40.405245-40.353057 40.405245L716.802968 732.31808zM858.829681 452.830645l-78.852906 0c7.478322-24.427342 11.498892-50.176796 11.498892-76.966952 0-149.046594-124.761492-269.928732-278.659581-269.928732-153.860227 0-278.639115 120.882138-278.639115 269.928732 0 26.790156 4.073782 52.53961 11.516288 76.966952l-82.256422 0 0-378.676505c0-19.61064 15.995299-35.553751 35.59059-35.553751L823.222719 38.600389c19.630083 0 35.606962 15.943111 35.606962 35.553751L858.829681 452.830645zM512.81711 560.078251c-99.399871 0-179.997514-78.07724-179.997514-174.460404 0-96.296183 80.598666-174.426635 179.997514-174.426635 99.435687 0 180.035376 78.131475 180.035376 174.426635C692.851463 482.001011 612.252797 560.078251 512.81711 560.078251z"  horiz-adv-x="1024" />

    
    <glyph glyph-name="erweima" unicode="&#58899;" d="M91.0594775 410.19216188l396.7150275-1e-8L487.774505 806.90622938 91.0594775 806.90622938 91.0594775 410.19216188zM190.23895437 707.7277125l198.35703376 0-1e-8-198.35703375L190.23895437 509.37067875 190.23895437 707.7277125zM537.36424344 806.90622938l0-396.7150275 396.7150275 0L934.07927 806.90622938 537.36424344 806.90622938zM834.89979406 509.37067875L636.54276031 509.37067875 636.54276031 707.7277125l198.35703375 0L834.89979406 509.37067875zM239.82773281 558.95945719l99.17851688 0L339.00624969 658.13893406 239.82773281 658.13893406 239.82773281 558.95945719zM91.0594775-36.11260405999997l396.7150275 0L487.774505 360.60242344000005 91.0594775 360.60242344000005 91.0594775-36.11260405999997zM190.23895437 261.42390656l198.35703376 0-1e-8-198.35703375L190.23895437 63.06687280999995 190.23895437 261.42390656zM785.31101469 658.13893406L686.13153875 658.13893406l0-99.17851687 99.17851687 0L785.31005563 658.13893406zM537.36424344-36.11260405999997l99.17851687 0L636.54276031 63.06591375000005 537.36424344 63.06591375000005 537.36424344-36.11260405999997zM636.54276031 261.42390656l0-198.35703375 99.17851688 0L735.72127719 261.42390656 636.54276031 261.42390656zM834.89979406 63.06591375000005L735.72127719 63.06591375000005 735.72127719-36.11260405999997l198.35703375 0L934.07831094 162.24538969000002 834.89979406 162.24538969000002 834.89979406 63.06591375000005zM834.89979406 261.42390656l99.17851688 0L934.07831094 360.60242344000005 834.89979406 360.60242344000005 834.89979406 261.42390656zM537.36424344 360.60242344000005l0-99.17851688 99.17851687 0L636.54276031 360.60242344000005 537.36424344 360.60242344000005zM239.82773281 112.65565125l99.17851688 0L339.00624969 211.83416812999997 239.82773281 211.83416812999997 239.82773281 112.65565125z"  horiz-adv-x="1024" />

    
    <glyph glyph-name="arrow-top" unicode="&#58914;" d="M494.93782291 660.00864485l-425.59451212-425.5945121 53.19752647-53.19752648 372.39698565 372.40413587 372.40413585-372.40413587 53.19573891 53.19752648-372.3987732 372.40056076z"  horiz-adv-x="1024" />

    
    <glyph glyph-name="gotop2" unicode="&#58900;" d="M512.3146484375 297.46113281249995c19.57412109375 0 37.2216796875-4.96318359375 52.94970703125-14.8833984375 15.726269531249999-9.92197265625 27.674121093749996-23.89306640625 35.8400390625-41.91503906249999 8.165917968750001-18.02197265625 12.25107421875-39.1130859375 12.25107421875-63.275976562500006 0-38.204296875000004-9.551953125-67.70302734375001-28.65146484375-88.48916015625-19.104785156249996-20.7896484375-43.43115234375-31.181835937500004-72.99667968749999-31.181835937500004-29.025000000000002 0-53.154492187500004 10.291113281249999-72.38847656249999 30.87861328125-19.234863281250004 20.5857421875-28.856250000000003 48.765234375-28.856250000000003 84.53935546875 0 44.680078124999994 10.0248046875 76.57294921875 30.07177734375 95.67685546875 20.04345703125 19.09951171875 43.9716796875 28.65146484375 71.77939453124999 28.65146484375M512.3146484375 347.46123046875005c-20.2166015625 0-39.50771484375-3.60966796875-57.3380859375-10.726171875-17.85849609375-7.127929687499999-34.32216796875-17.803125-48.934863281249996-31.728515625-16.172753906249998-15.411621093749998-28.20498046875-35.41376953125-35.760058593749996-59.45185546875-6.515332031250001-20.729003906250004-9.819140625000001-45.09580078125-9.819140625000001-72.421875 0-48.69052734375 14.239160156250001-88.61923828124999 42.32197265625-118.67519531250001 14.355175781249999-15.36240234375 30.9884765625-27.14326171875 49.440234375-35.013867187500004 18.2443359375-7.7818359375 38.2587890625-11.728125 59.483496093750006-11.728125 21.5033203125 0 41.71025390625 3.97529296875 60.06181640625 11.8142578125 18.675 7.9769531250000005 35.41376953125 19.93447265625 49.75224609375 35.53681640625 27.760253906250004 30.210644531249994 41.83505859374999 71.36542968749998 41.83505859374999 122.31914062499999 0 31.212597656249997-5.621484375 59.4439453125-16.708007812500004 83.91093749999999-12.23349609375 26.998242187499997-30.639550781249998 48.385546874999996-54.7048828125 63.567773437499994-23.769140625000002 14.994140624999998-50.55908203125 22.596679687500004-79.62978515625 22.596679687500004v0zM741.48857421875 514.415625c9.762890625 9.762890625 9.762890625 25.591992187499997 0 35.3548828125l-207.3498046875 207.34716796875c-9.762890625 9.762890625-25.591992187499997 9.762890625-35.3548828125 0l-207.348046875-207.34716796875c-9.762890625-9.762890625-9.762890625-25.591992187499997 0-35.3548828125 9.763769531249999-9.762890625 25.591992187499997-9.762890625 35.3548828125 0l189.6697265625 189.67060546875 189.67324218750002-189.67060546875c4.8814453125-4.8814453125 11.27900390625-7.32216796875 17.678320312500002-7.32216796875s12.795996093749999 2.44072265625 17.678320312500002 7.32216796875zM940.259375 291.6366210937499c-7.883789062500001 16.11298828125-18.657421875 28.9740234375-32.03173828125 38.2306640625-12.82412109375 8.86728515625-28.49677734375 14.90185546875-46.5802734375 17.9384765625-11.9583984375 2.15595703125-28.13642578125 3.2044921874999996-49.4419921875 3.2044921874999996h-72.69169921875c-0.8630859375000001 0-1.7156250000000002-0.0439453125-2.555859375-0.12919921875-12.6052734375-1.2796875-22.44375-11.925878906250002-22.44375-24.871289062499997v-296.84619140625c0-13.80849609375 11.192871093749998-25.00048828125 25.00048828125-25.00048828125s25.00048828125 11.191992187499999 25.00048828125 25.00048828125v95.68388671875h51.134765625c49.7619140625 0 84.26425781249999 11.221875 105.4775390625 34.3072265625 20.3642578125 22.1607421875 30.68876953125 49.4138671875 30.68876953125 81.00263671875-0.0008789062499999999 18.47021484375-3.8865234374999997 35.78818359375-11.5541015625 51.480175781250004zM884.3055664062499 192.98466796875005c-10.9037109375-11.865234375-34.64648437500001-18.13798828125-68.65927734375-18.13798828125h-51.134765625v126.16347656250001h47.6912109375c22.57822265625 0 34.58408203124999-1.3209960937499998 40.68017578125-2.4310546875l0.365625-0.06240234375c10.84482421875-1.8061523437500002 19.7736328125-5.09501953125 26.53330078125-9.76904296875 6.3360351562499995-4.3848632812499995 11.4275390625-10.6259765625 15.55751953125-19.06962890625 4.3541015625-8.912109375000002 6.471386718750001-18.5677734375 6.471386718750001-29.519824218750003 0-18.923730468749998-5.726953125-34.35205078125-17.506054687499997-47.171777343749994zM335.23876953125 351.0093750000001h-235.290234375c-13.806738281249999 0-25.00048828125-11.192871093749998-25.00048828125-25.00048828125s11.192871093749998-25.00048828125 25.00048828125-25.00048828125h92.64550781249999v-271.845703125c0-13.80849609375 11.192871093749998-25.00048828125 25.00048828125-25.00048828125s25.00048828125 11.191992187499999 25.00048828125 25.00048828125v271.845703125h92.64462890625c13.806738281249999 0 25.00048828125 11.192871093749998 25.00048828125 25.00048828125s-11.193750000000001 25.00048828125-25.0013671875 25.00048828125z"  horiz-adv-x="1024" />

    
    <glyph glyph-name="wangwang" unicode="&#58909;" d="M524.177-96c-8.054 0-16.108 0-24.16 0-132.735 6.391-233.72 53.801-307.493 120.801-73.733 66.963-128.393 160.778-136.175 292.119 0 6.955 0 13.911 0 20.866 17.822 213.894 137.517 325.923 306.396 388.76-5.657 54.013-27.080 98.116-45.025 136.177 77.722-27.071 152.618-56.991 216.343-97.739 9.773-6.249 18.697-14.872 27.456-17.572 15.507-4.78 31.962-3.748 46.124-6.59 98.288-19.72 182.918-67.607 240.503-129.587 65.668-70.681 125.389-161.713 117.506-303.101-6.974-125.113-64.105-218.15-138.372-284.432-75.405-67.298-168.196-112.868-303.101-119.705zM765.78 525.578c-0.982 0.538-3.432-0.825-4.393-1.099-24.72-7.025-56.648-16.688-79.071-28.553 48.867-23.339 58.174-119.538 27.456-170.221 29.059 0.226 58.043 0.528 85.658 2.198 29.962 56.656 16.808 172.218-29.65 197.675zM553.828 460.785c-4.438 9.729-20.124 39.015-29.651 36.24-25.462-7.413-56.731-19.003-81.265-29.651 43.358-25.083 50.238-117.194 27.456-170.219 29.217 0.433 57.272 2.030 86.756 2.195 21.211 44.104 16.492 118.038-3.294 161.437z"  horiz-adv-x="1024" />

    
    <glyph glyph-name="rili" unicode="&#58938;" d="M402.245805 309.111382 291.83209 309.111382 291.83209 419.532261l110.413716 0L402.245805 309.111382 402.245805 309.111382zM569.077461 419.532261 458.661699 419.532261l0-110.420879 110.415762 0L569.077461 419.532261 569.077461 419.532261zM735.914234 419.532261 625.493356 419.532261l0-110.420879L735.914234 309.111382 735.914234 419.532261 735.914234 419.532261zM402.245805 258.317533 291.83209 258.317533l0-110.415762 110.413716 0L402.245805 258.317533 402.245805 258.317533zM569.077461 258.317533 458.661699 258.317533l0-110.415762 110.415762 0L569.077461 258.317533 569.077461 258.317533zM735.914234 258.317533 625.493356 258.317533l0-110.415762L735.914234 147.901771 735.914234 258.317533 735.914234 258.317533zM777.031701 642.43905c0-18.809391-15.246239-34.057677-34.057677-34.057677s-34.06484 15.248286-34.06484 34.057677l0 85.72236c0 18.810415 15.253402 34.0587 34.06484 34.0587s34.057677-15.248286 34.057677-34.0587L777.031701 642.43905 777.031701 642.43905zM316.838623 728.316953c0 18.803251-15.249309 34.057677-34.059724 34.057677-18.811438 0-34.06484-15.253402-34.06484-34.057677l0-85.720314c0-18.813484 15.253402-34.066887 34.06484-34.066887 18.809391 0 34.059724 15.253402 34.059724 34.066887L316.838623 728.316953 316.838623 728.316953zM818.205449 678.581202l0-34.895765c0-41.48381-33.751708-75.232448-75.232448-75.232448-41.484833 0-75.232448 33.747615-75.232448 75.232448l0 34.895765L358.011348 678.581202l0-34.738176c0-41.48688-33.751708-75.237565-75.232448-75.237565-41.484833 0-75.232448 33.750685-75.232448 75.237565l0 34.738176-81.700767 0 0-672.954809 772.306584 0L898.152269 678.581202 818.205449 678.581202 818.205449 678.581202zM823.171554 80.609155 200.827423 80.609155 200.827423 497.636107l622.344131 0L823.171554 80.609155 823.171554 80.609155zM823.171554 80.609155"  horiz-adv-x="1024" />

    
    <glyph glyph-name="homebig" unicode="&#59080;" d="M934.4 403.2c0-6.4-6.4-6.4-12.8-6.4 0 0 0 0 0 0-6.4 0-6.4 0-12.8 6.4L512 729.6 115.2 403.2c-6.4 0-6.4-6.4-12.8-6.4-6.4 0-6.4 0-12.8 6.4L57.6 448c-6.4 6.4-6.4 19.2 0 25.6l409.6 339.2c25.6 19.2 64 19.2 89.6 0l140.8-115.2L697.6 812.8c0 12.8 6.4 19.2 19.2 19.2l108.8 0c12.8 0 19.2-6.4 19.2-19.2L844.8 576l128-102.4c6.4-6.4 6.4-19.2 0-25.6L934.4 403.2zM838.4 134.4c0-19.2-19.2-38.4-38.4-38.4L582.4 96 582.4 320 441.6 320l0-217.6L217.6 102.4c-19.2 0-38.4 19.2-38.4 38.4L179.2 409.6c0 0 0 0 0 6.4L512 684.8l326.4-268.8c0 0 0 0 0-6.4L838.4 134.4z"  horiz-adv-x="1024" />

    
    <glyph glyph-name="jiantouyou" unicode="&#58995;" d="M218.12500000000003 282.64848962402334l1955.9202486877443 0L2174.309597869874 282.64848962402334l53.55716226196289 0-26.91075531005859 26.91075531005859-26.91075531005859 26.91075531005859 0-0.026434753417968748L1845.6441506347653 664.8975346984864l-37.378986877441406-37.378986877441406 291.9737688903809-291.9737688903809L218.12500000000003 335.54477893066405 218.12500000000003 282.64848962402334zM2174.0452486877452 335.94130270385745l0-0.42295852661132805-0.42295852661132805 0L2174.0452486877452 335.94130270385745z"  horiz-adv-x="2443" />

    
    <glyph glyph-name="wechat" unicode="&#58934;" d="M999.87911111 231.08266666999998c0 131.072-123.79022222 240.29866667-276.70755556 247.58044444-29.12711111 138.35377778-167.48088889 247.58044445-334.96177777 247.58044444-189.32622222 0-342.24355555-131.072-342.24355556-291.2711111 0-94.66311111 50.97244445-174.76266667 131.072-225.73511112L147.91111111 92.72888889000001l160.19911111 58.25422222c29.12711111-7.28177778 50.97244445-7.28177778 80.09955556-7.28177778 14.56355555 0 36.40888889 0 50.97244444 7.28177778 43.69066667-94.66311111 145.63555555-160.19911111 269.42577778-160.19911111 29.12711111 0 65.536 7.28177778 94.66311111 14.56355555l0 0 94.66311111-36.40888888c0 0-7.28177778 43.69066667-14.56355555 72.81777778C956.18844445 78.16533332999995 999.87911111 150.98311110999998 999.87911111 231.08266666999998zM555.69066667 311.18222221999997c0 21.84533333 14.56355555 43.69066667 36.40888888 43.69066667S628.50844445 333.02755555 628.50844445 311.18222221999997 613.94488889 267.49155555000004 592.09955555 267.49155555000004 555.69066667 289.33688888999995 555.69066667 311.18222221999997zM388.20977778 180.11022221999997c-29.12711111 0-65.536 7.28177778-94.66311111 14.56355556l-109.22666667-50.97244445c0 0 21.84533333 50.97244445 29.12711111 80.09955556-72.81777778 43.69066667-131.072 123.79022222-131.072 211.17155556 0 138.35377778 138.35377778 254.86222222 305.83466667 254.86222222 152.91733333 0 276.70755555-87.38133333 298.55288889-211.17155556-152.91733333-7.28177778-269.42577778-116.50844445-269.42577778-247.58044444 0-14.56355555 0-36.40888889 7.28177778-50.97244445C417.33688889 180.11022221999997 402.77333333 180.11022221999997 388.20977778 180.11022221999997zM810.55288889 267.49155555000004c-21.84533333 0-36.40888889 21.84533333-36.40888889 43.69066667s14.56355555 43.69066667 36.40888889 43.69066667 36.40888889-21.84533333 36.40888889-43.69066667S832.39822222 267.49155555000004 810.55288889 267.49155555000004zM257.13777778 580.608C278.98311111 580.608 293.54666667 558.76266667 293.54666667 536.91733333S278.98311111 493.22666667 257.13777778 493.22666667 220.72888889 515.072 220.72888889 536.91733333 235.29244445 580.608 257.13777778 580.608zM497.43644445 580.608c21.84533333 0 36.40888889-21.84533333 36.40888888-43.69066667S519.28177778 493.22666667 497.43644445 493.22666667c-21.84533333 0-36.40888889 21.84533333-36.4088889 43.69066666S475.59111111 580.608 497.43644445 580.608z"  horiz-adv-x="1024" />

    
    <glyph glyph-name="next" unicode="&#58937;" d="M746.688 736h117.312v-704h-117.312v704zM160 32l498.688 352-498.688 352z"  horiz-adv-x="1024" />

    
    <glyph glyph-name="qq1" unicode="&#58897;" d="M116.435 302.286c-33.54-78.964-38.985-154.297-12.059-168.37 18.572-9.696 47.686 12.382 74.936 52.909 10.791-44.157 37.493-84.137 75.633-116.21-40.004-14.768-66.135-38.886-66.135-66.232 0-44.954 70.709-81.302 157.978-81.302 78.716 0 143.907 29.538 155.94 68.371 3.232 0.049 15.663 0.049 18.796 0 12.083-38.784 77.324-68.371 155.989-68.371 87.267 0 157.978 36.398 157.978 81.302 0 27.297-26.105 51.464-66.135 66.232 38.089 32.123 64.889 72.053 75.631 116.21 27.251-40.527 56.29-62.605 74.887-52.909 26.95 14.073 21.631 89.456-12.032 168.37-26.355 62.058-62.11 107.754-89.457 117.848 0.398 3.929 0.596 7.958 0.596 11.935 0 23.968-6.661 46.146-18.049 64.196 0.199 1.393 0.199 2.834 0.199 4.227 0 11.038-2.636 21.381-7.114 30.332-6.909 161.309-111.93 289.402-281.866 289.402-170.036 0-275.106-128.093-281.943-289.402-4.525-9.001-7.135-19.343-7.135-30.332 0-1.393 0.099-2.835 0.15-4.227-11.288-18.05-17.951-40.178-17.951-64.196 0-3.978 0.15-7.955 0.498-11.935-27.151-10.094-63.028-55.841-89.333-117.848z"  horiz-adv-x="1024" />

    
    <glyph glyph-name="gotop" unicode="&#58895;" d="M857.769 210.41200000000003l-345.769 344.813-345.769-344.813-39.712 39.825 385.481 384.413 385.481-384.413zM483.875 594.938h56.25v-576.563h-56.25v576.563zM146.375 749.625h731.25v-56.25h-731.25v56.25z"  horiz-adv-x="1024" />

    
    <glyph glyph-name="fangdajing" unicode="&#58894;" d="M947.509543-2.852403 726.787249 217.869891c55.154992 64.569202 88.411712 148.273808 88.411712 239.653043 0 203.735785-165.77196 369.507745-369.507745 369.507745s-369.507745-165.77196-369.507745-369.507745 165.77196-369.610073 369.507745-369.610073c91.379235 0 175.083841 33.359049 239.653043 88.411712l220.722294-220.722294c5.730389-5.730389 13.20036-8.595583 20.772659-8.595583 7.469971 0 15.04227 2.865194 20.772659 8.595583C958.970321-32.834616 958.970321-14.313181 947.509543-2.852403zM134.817628 457.522934c0 171.40002 139.473569 310.873588 310.873588 310.873588S756.564805 628.922954 756.564805 457.522934c0-171.40002-139.473569-310.873588-310.873588-310.873588S134.817628 286.122914 134.817628 457.522934z"  horiz-adv-x="1024" />

    
    <glyph glyph-name="icon_weibo" unicode="&#58930;" d="M385.728 162.432c-16.576-26.304-52-37.728-78.304-25.728-25.696 12-33.696 42.304-17.152 68 16 25.152 50.304 36.576 76 25.728 26.88-11.424 35.456-41.728 19.456-68zM439.424 231.584c-5.696-10.304-18.848-14.88-29.152-10.88-10.272 4.576-13.12 15.424-7.424 25.728 5.728 9.696 18.304 14.272 28.576 10.848 10.304-4 13.728-15.424 8-25.696zM538.848 170.432c34.304 76.576-8 155.424-92 177.152-80.576 20.544-171.424-19.456-206.848-90.304-35.424-72.576-1.152-153.152 80.576-179.424 84.576-27.424 184 14.848 218.272 92.576zM717.152 261.856c10.848-111.424-117.152-214.848-286.88-232-169.696-16.576-316 60-326.848 171.424-10.848 111.424 117.152 214.848 286.848 232 169.728 16.576 316-60 326.88-171.424zM893.152 259.584c0 77.696-65.152 121.696-124 140-14.304 4.544-24 7.424-16.576 26.272 16 41.152 17.696 76.576 0 101.728-33.152 47.424-124 45.12-228 1.12 0 0.576-32.576-14.272-24.576 12 16 51.424 13.728 94.88-11.424 119.424-56.576 56.576-206.848-1.696-336-130.848-96.576-96.576-152.576-198.848-152.576-287.424 0-169.728 217.152-272.576 429.728-272.576 278.272 0 463.424 161.728 463.424 290.304zM850.848 616.128c-32.576 36.576-81.12 50.304-125.696 40.576-18.304-4-29.728-21.696-25.728-40 3.424-18.272 21.728-29.696 40-25.696 21.728 4.576 45.152-2.304 61.152-20 16-17.728 20.576-41.728 13.696-63.424-5.696-17.728 4-36.576 21.728-42.304 17.728-5.696 36.576 4 42.272 21.728 14.304 43.424 5.152 93.12-27.424 129.12zM954.272 709.28c-67.424 74.848-166.272 102.848-258.272 83.424-21.152-4.576-34.848-25.12-30.272-46.272 4.544-21.152 25.696-34.848 46.848-30.304 65.152 13.728 135.424-6.272 183.424-59.424 48-52.576 60.576-125.12 40-188.576-6.272-20.544 5.152-42.272 25.728-49.12 20.544-6.88 42.272 4.576 49.12 25.12 28.576 89.152 10.88 190.88-56.576 265.152z"  horiz-adv-x="1024" />

    
    <glyph glyph-name="dingwei" unicode="&#58888;" d="M512.789408-127.999001c0 0-356.554584 454.951786-356.554584 649.975518 0 194.989758 159.651262 353.069198 356.554584 353.069198 196.886335 0 356.527604-158.060455 356.527604-353.069198-0.001999-195.030727-356.527604-649.975518-356.527604-649.975518l0 0zM509.090182 672.22683c-83.804147 0-151.769173-67.288534-151.769173-150.326255 0-82.991756 67.954034-150.282288 151.769173-150.282288 83.850112 0 151.785161 67.288534 151.785161 150.282288 0 83.014739-67.930052 150.326255-151.785161 150.326255l0 0z"  horiz-adv-x="1024" />

    
    <glyph glyph-name="bofang" unicode="&#58939;" d="M909.892465 564.218269c-21.798121 51.476314-52.909055 97.631021-92.514092 137.236058-39.605037 39.605037-85.862083 70.818309-137.236058 92.514092-53.21607 22.514491-109.809314 33.976414-168.142315 33.976414S397.176094 816.585249 343.857685 793.968419c-51.476314-21.798121-97.631021-52.909055-137.236058-92.514092s-70.818309-85.862083-92.514092-137.236058c-22.514491-53.21607-33.976414-109.809314-33.976414-168.142315s11.461923-114.823906 33.976414-168.142315c21.798121-51.476314 52.909055-97.631021 92.514092-137.236058 39.605037-39.605037 85.862083-70.818309 137.236058-92.514092 53.21607-22.514491 109.809314-33.976414 168.142315-33.976414s114.823906 11.461923 168.142315 33.976414c51.476314 21.798121 97.631021 52.909055 137.236058 92.514092 39.605037 39.605037 70.818309 85.862083 92.514092 137.236058 22.514491 53.21607 33.976414 109.809314 33.976414 168.142315S932.509294 510.89986 909.892465 564.218269zM512 9.236058c-213.273636 0-386.839896 173.56626-386.839896 386.839896s173.56626 386.839896 386.839896 386.839896 386.839896-173.56626 386.839896-386.839896S725.273636 9.236058 512 9.236058zM641.355986 399.760144 458.681591 528.195083c-8.391765 5.8333-19.649011-0.102339-19.649011-10.336198l0-256.869878c0-10.23386 11.257246-16.169498 19.649011-10.336198l182.776734 128.434939C648.622027 384.102339 648.519688 394.745553 641.355986 399.760144z"  horiz-adv-x="1024" />

    
    <glyph glyph-name="ie" unicode="&#59543;" d="M740.817702 325.87498200000005c-26.965442-106.894479-108.749299-184.616955-205.468853-184.616955-118.613382 0-214.779762 116.886375-214.89735 261.127765L750.248245 402.385793c0-0.021473-0.001023-0.043968-0.001023-0.066463l213.928018 0C963.28055 639.542005 770.716704 831.577217 533.282371 831.577217c-237.986484 0-430.912295-192.925812-430.912295-430.912295S295.29691-30.247375000000034 533.282371-30.247375000000034c212.476064 0 389.019338 153.788498 424.428606 356.12338L740.818725 325.87600499999996 740.817702 325.87498200000005zM535.349872 664.045259c96.919965 0 178.84186-78.045587 205.634499-185.282604L329.713328 478.762655C356.50699 585.99865 438.429907 664.045259 535.349872 664.045259zM246.096125-51.94181500000002C86.25441 56.48539500000004 85.348473 334.262572 244.070547 568.491359S661.036928 904.705588 820.878642 796.278378c83.06812-56.349102 123.189082-158.441908 120.308692-276.383506 13.317075 141.392698-27.482828 264.870125-122.889488 329.586367C648.130898 964.912593 368.705447 849.705167 194.183662 592.157183s-178.052487-559.906126-7.885541-675.336457c120.202352-81.538456 294.919435-47.986052 448.671123 69.516892C500.463102-103.33177899999998 351.773825-123.62641299999996 246.096125-51.94181500000002L246.096125-51.94181500000002z"  horiz-adv-x="1024" />

    
    <glyph glyph-name="skype" unicode="&#58902;" d="M946.1589333333334 345.3589333333333c2.6357333333333335 0 4.135466666666666 27.473066666666668 4.135466666666666 47.67466666666667 0 241.93813333333333-197.21813333333333 432.2421333333333-440.4128 432.2421333333333-24.156799999999997 0-47.89653333333333-4.925866666666667-70.9152-8.701866666666666-41.36213333333333 26.974933333333336-90.57493333333333 41.14666666666667-143.50613333333334 41.14666666666667-145.24693333333335 0-262.7968-118.40853333333332-262.7968-263.5946666666667 0-52.81066666666666 15.526399999999999-102.2752 42.32106666666667-143.45600000000002-3.5957333333333334-22.538666666666664-5.454933333333333-45.74186666666667-5.454933333333333-69.23946666666667 0-241.99786666666665 197.0976-438.2282666666667 440.3541333333333-438.2282666666667 27.454933333333333 0 54.1888 2.6506666666666665 80.14613333333334 7.326933333333333 40.34346666666667-25.058133333333334 87.93813333333333-39.64586666666666 138.89173333333335-39.64586666666666 145.18613333333332 0 262.7968 129.4496 262.7968 274.63573333333335 0 54.85013333333333-16.784 97.48373333333333-45.61813333333333 159.84213333333332h0.058666666666666666zM551.0645333333334 58.32213333333334c-139.9712-7.314133333333333-205.43146666666667 23.677866666666667-265.43466666666666 79.96693333333333-67.0176 62.8832-40.10346666666667 134.57493333333332 14.5056 138.23253333333332 54.61013333333334 3.6565333333333334 87.27893333333333-61.86346666666667 116.41173333333333-80.0256 29.072-18.1632 139.73226666666665-59.4656 198.17706666666666 7.314133333333333 63.66186666666667 72.71146666666667-42.32106666666667 110.3584-120.00853333333333 121.74826666666667-110.89813333333333 16.424533333333333-250.928 76.42986666666667-240.01919999999998 194.64106666666666 10.909866666666666 118.15146666666666 100.34773333333332 178.75626666666668 194.52053333333333 187.26719999999997 120.00853333333333 10.909866666666666 198.17706666666666-18.1632 259.9808-70.9152 71.45386666666667-60.96426666666667 32.7904-129.06133333333332-12.709333333333332-134.51626666666667-45.37813333333334-5.454933333333333-96.27199999999999 100.22826666666667-196.31893333333335 101.84639999999999-103.10506666666667 1.6181333333333332-172.7605333333333-107.24053333333333-45.497600000000006-138.23253333333332 127.32266666666666-30.9312 263.6384-43.64053333333333 312.7914666666667-159.9925333333333 49.1552-116.35413333333332-76.36906666666667-240.02026666666666-216.39893333333333-247.33333333333334z"  horiz-adv-x="1024" />

    
    <glyph glyph-name="whatsapp" unicode="&#58913;" d="M520.124 832c-242.914 0-439.856-195.402-439.856-436.464 0-82.46 23.064-159.58 63.118-225.374l-79.386-234.162 243.528 77.364c63.016-34.57 135.49-54.292 212.596-54.292 242.946 0 439.876 195.43 439.876 436.464 0 241.062-196.93 436.464-439.876 436.464zM738.848 229.77999999999997c-10.348-25.654-57.148-49.066-77.798-50.144-20.628-1.094-21.216-15.988-133.68 32.868-112.45 48.868-180.104 167.688-185.438 175.34-5.338 7.624-43.56 62.094-41.498 116.91 2.076 54.826 32.094 80.692 42.808 91.45 10.702 10.774 22.972 12.704 30.464 12.826 8.856 0.144 14.592 0.264 21.146 0.022 6.548-0.248 16.384 1.37 24.9-21.278 8.512-22.646 28.886-78.306 31.492-83.978 2.604-5.678 4.216-12.252 0.204-19.542-4.024-7.306-6.084-11.87-11.922-18.166-5.87-6.296-12.348-14.084-17.584-18.898-5.84-5.33-11.94-11.144-5.8-22.538 6.136-11.386 27.306-48.712 59.558-79.472 41.45-39.542 77.196-52.658 88.196-58.634 11.03-6.008 17.612-5.34 24.452 1.858 6.808 7.198 29.278 31.492 37.192 42.338 7.91 10.876 15.322 8.746 25.484 4.658 10.156-4.104 64.314-33.112 75.346-39.102 11.02-5.978 18.386-9.058 21.02-13.8 2.634-4.76 1.802-27.062-8.542-52.718z"  horiz-adv-x="1024" />

    
    <glyph glyph-name="tuite" unicode="&#58891;" d="M1014.7819999999999 599.253l-86.618-17.669c51.732 39.847 62.429 120.68799999999999 62.429 120.68799999999999l-104.298-63.211c-36.596 80.233-117.45799999999998 136.032-211.401 136.032-128.286 0-232.287-104.001-232.287-232.287 0-18.283 2.182-36.048 6.175-53.115-129.751 49.689-332.11799999999994 127.488-362.892 138.87599999999998-15.899-56.61299999999999-12.359-118.978 14.624-176.377 11.066-23.539 25.296999999999997-44.575 41.935-62.865-38.61 1.552-67.494 2.676-77.394 2.9619999999999997 2.67-51.793 23.212-102.911 61.941-143.273 14.135-14.732 29.825999999999997-27.058 46.535-37.072-39.236-10.131-71.655-18.525-80.123-20.816 10.585-29.468 31.376-55.42099999999999 60.809-71.988 22.037-12.401 58.543-21.745 98.585-26.166999999999998-54.12799999999999-17.074-111.68899999999998-26.423-171.46-26.423-23.235 0-46.131 1.424-68.633 4.13 92.16-64.134 204.141-101.767 324.93-101.767 300.519 0 546.569 232.79099999999997 567.927 527.874 72.185 33.71 109.215 102.469 109.215 102.469z"  horiz-adv-x="1024" />

    
    <glyph glyph-name="gouwuche1" unicode="&#58929;" d="M1000.21217 260.534555L1191.373814 697.768084a24.778989 24.778989 0 0 1-22.730593 34.690585H347.632703L316.642447 876.176808a24.778989 24.778989 0 0 1-24.250371 19.823192H24.778989a24.778989 24.778989 0 1 1 0-49.557979h247.591663l154.554817-716.542298a130.370523 130.370523 0 1 1 157.792605-127.397045A129.181132 129.181132 0 0 1 555.974447 83.249145h284.132412a129.181132 129.181132 0 0 1-28.743627-80.68039 130.436601 130.436601 0 1 1 130.4366 130.436601h-3.17171v0.462541H476.549526v2.048396L452.629541 245.667161h524.852036a24.778989 24.778989 0 0 1 22.730593 14.867394z m-545.864619-338.976576A80.878622 80.878622 0 1 0 535.226173 2.436601a80.944699 80.944699 0 0 0-80.878622-80.878622z m568.264826 80.878622A80.878622 80.878622 0 1 0 941.6016 83.249145a80.944699 80.944699 0 0 0 80.812545-80.812544z m-574.211783 292.788539L358.931922 682.966768h771.849003l-169.488288-387.741628z"  horiz-adv-x="1193" />

    
    <glyph glyph-name="chuanzhen" unicode="&#58886;" d="M322.1333333333333 447.36l366.72 0c21.119999999999997 0 40.32 17.279999999999998 40.32 40.32L729.1733333333333 729.5999999999999c0 21.119999999999997-17.279999999999998 40.32-40.32 40.32L337.4933333333333 769.9200000000001c-28.799999999999997 0-51.839999999999996-23.04-51.839999999999996-51.839999999999996l0-234.24C285.6533333333333 462.72 301.0133333333333 447.36 322.1333333333333 447.36zM861.6533333333333 608.64l-30.72 0c-26.88 0-48-15.36-48-51.839999999999996l0-96c0-28.799999999999997-23.04-51.839999999999996-51.839999999999996-51.839999999999996L293.3333333333333 408.96000000000004c-28.799999999999997 0-51.839999999999996 23.04-51.839999999999996 51.839999999999996l0 96c0 30.72-13.44 51.839999999999996-48 51.839999999999996L160.85333333333332 608.64c-38.4 0-69.11999999999999-30.72-69.11999999999999-69.11999999999999l0-428.16c0-38.4 30.72-69.11999999999999 69.11999999999999-69.11999999999999l49.919999999999995 0c23.04 0 30.72 13.44 30.72 34.559999999999995l0 34.559999999999995c0 28.799999999999997 23.04 51.839999999999996 51.839999999999996 51.839999999999996l435.84000000000003 0c28.799999999999997 0 51.839999999999996-23.04 51.839999999999996-51.839999999999996l0-40.32c0-19.2 7.68-28.799999999999997 26.88-28.799999999999997l51.839999999999996 0c38.4 0 69.11999999999999 30.72 69.11999999999999 69.11999999999999L928.8533333333334 539.52C930.7733333333334 577.9200000000001 900.0533333333334 608.64 861.6533333333333 608.64zM322.1333333333333 447.36l366.72 0c21.119999999999997 0 40.32 17.279999999999998 40.32 40.32L729.1733333333333 729.5999999999999c0 21.119999999999997-17.279999999999998 40.32-40.32 40.32L337.4933333333333 769.9200000000001c-28.799999999999997 0-51.839999999999996-23.04-51.839999999999996-51.839999999999996l0-234.24C285.6533333333333 462.72 301.0133333333333 447.36 322.1333333333333 447.36zM316.37333333333333-21.12000000000012l380.16 0c19.2 0 34.559999999999995 15.36 34.559999999999995 34.559999999999995l0 72.96c0 15.36-13.44 28.799999999999997-28.799999999999997 28.799999999999997l-384 0c-17.279999999999998 0-32.64-13.44-32.64-32.64l0-72.96C285.6533333333333-5.759999999999991 299.0933333333333-21.12000000000012 316.37333333333333-21.12000000000012z"  horiz-adv-x="1024" />

    
    <glyph glyph-name="whatsapp1" unicode="&#59217;" d="M644.267 336.458q7.924 0 59.428-26.819t54.553-32.305q1.219-3.047 1.219-9.142 0-20.114-10.362-46.324-9.753-23.772-43.276-39.924t-62.172-16.153q-34.742 0-115.809 37.791-59.733 27.428-103.619 71.924t-90.209 112.762q-43.886 65.219-43.276 118.247v4.876q1.828 55.467 45.105 96.305 14.628 13.409 31.695 13.409 3.658 0 10.972-0.914t11.581-0.914q11.581 0 16.153-3.962t9.447-16.762q4.876-12.191 20.114-53.638t15.238-45.714q0-12.8-21.028-35.047t-21.028-28.342q0-4.267 3.047-9.142 20.724-44.495 62.172-83.505 34.133-32.305 92.038-61.562 7.314-4.267 13.409-4.267 9.142 0 32.914 29.562t31.695 29.562zM520.533 13.409q77.409 0 148.419 30.476t122.209 81.676 81.676 122.209 30.476 148.419-30.476 148.419-81.676 122.209-122.209 81.676-148.419 30.476-148.419-30.476-122.209-81.676-81.676-122.209-30.476-148.419q0-123.733 73.142-224.305l-48.153-142.019 147.505 46.933q96.305-63.391 210.286-63.391zM520.533 855.772q93.258 0 178.286-36.572t146.591-98.133 98.133-146.591 36.572-178.286-36.572-178.286-98.133-146.591-146.591-98.133-178.286-36.572q-118.858 0-222.476 57.295l-254.172-81.676 82.895 246.858q-65.828 108.495-65.828 237.105 0 93.258 36.572 178.286t98.133 146.591 146.591 98.133 178.286 36.572z"  horiz-adv-x="1024" />

    
    <glyph glyph-name="dianhua" unicode="&#58936;" d="M873.411875 180.7059375c0-135.5296875-62.1178125-135.5296875-361.41187499999995-135.5296875s-361.41187499999995 0-361.41187499999995 135.5296875c0 146.82375 163.764375 440.4703125 361.41187499999995 440.4703125s361.41187499999995-293.6475 361.41187499999995-440.4703125zM512 559.0584375c-84.70593749999999 0-152.47031249999998-67.764375-152.47031249999998-152.47031249999998S427.2940625 254.1178124999999 512 254.1178124999999s152.47031249999998 67.764375 152.47031249999998 152.47031249999998S596.7059374999999 559.0584375 512 559.0584375z m-316.23562499999997-112.940625C257.88218750000004 547.7653124999999 365.17625 655.059375 512 655.059375s265.411875-118.588125 316.23562499999997-208.9415625c28.235625-45.17625 79.0584375-39.5296875 101.64750000000001 0 16.9415625 28.235625 62.1178125 282.35249999999996-417.8821875 282.35249999999996S77.1771875 468.7059375 94.11874999999998 446.1178125c33.8821875-45.17625 90.3525-22.588125 101.64750000000001 0z"  horiz-adv-x="1024" />

    
    <glyph glyph-name="google" unicode="&#58949;" d="M621.313 823.54H392.318c-60.03 0-135.602-8.694-198.982-59.797-47.84-40.212-71.18-95.678-71.18-145.683 0-84.786 66.73-170.671 184.537-170.671 11.15 0 23.341 1.098 35.619 2.167-5.575-13.029-11.123-23.891-11.123-42.408 0-33.684 17.738-54.338 33.31-73.895-50.006-3.264-143.402-8.695-212.329-50.006-65.604-38.046-85.595-93.483-85.595-132.624 0-80.454 77.795-155.476 239.02-155.476 191.21 0 292.377 103.274 292.377 205.45 0 75.023-44.403 112-93.368 152.213l-40.038 30.447c-12.22 9.764-28.888 22.822-28.888 46.742 0 23.89 16.669 39.142 31.141 53.269 46.655 35.879 93.367 73.926 93.367 154.378 0 82.62-53.357 126.097-78.951 146.751h68.927l71.151 39.144z m-97.816-665.35c0-67.367-56.679-117.373-163.42-117.373-118.961 0-195.687 55.436-195.687 132.626s71.18 103.275 95.62 111.97c46.683 15.223 106.74 17.42 116.765 17.42 11.092 0 16.639 0 25.536-1.099 84.527-58.728 121.186-88.05 121.186-143.544zM434.61 508.255c-17.823-17.36-47.896-30.447-75.658-30.447-95.591 0-138.98 120.694-138.98 193.521 0 28.281 5.547 57.632 24.496 80.453 17.796 21.753 48.88 35.88 77.795 35.88 92.298 0 140.078-121.764 140.078-200.022 0.002-19.556-2.223-54.367-27.731-79.385z m408.19 149.728v110.44h-55.465v-110.44H676.403v-55.235h110.93V492.31h55.465V602.748h110.929v55.235H842.799z"  horiz-adv-x="1024" />

    
    <glyph glyph-name="fax1" unicode="&#58959;" d="M297.4013 645.2925h431.99999999999994v-40.49999999999999h-431.99999999999994zM297.4013 539.9177999999999h431.99999999999994v-40.49999999999999h-431.99999999999994zM810.4013 539.9177999999999V762h-594v-222.08220000000003H135.91070000000002v-398.4039h80.4915V6h594V141.51390000000004h77.688V539.9177999999999h-77.68889999999999z m-58.50000000000001-475.4178h-477v77.01389999999999h477V64.5z m0 368.99999999999994h-477V703.5h477v-270z"  horiz-adv-x="1024" />

    
    <glyph glyph-name="left" unicode="&#58881;" d="M692.77 850.057c6.553 0 13.107-2.492 18.091-7.51 10.001-10.001 10.001-26.214 0-36.215l-401.306-401.306 428.339-428.339c10.001-10.001 10.001-26.214 0-36.215s-26.214-10.001-36.215 0l-464.521 464.556 437.521 437.555c4.983 4.983 11.537 7.474 18.091 7.475z"  horiz-adv-x="1024" />

    
    <glyph glyph-name="diqiu" unicode="&#58912;" d="M504.61696 460.61568c0.0512 0.0768 0.11776 0.13824 0.16384 0.21504a28.34944 28.34944 0 0 0-0.39936 2.17088c0.08192-0.7936 0.16896-1.5872 0.23552-2.38592z m169.41056-184.9856c0.01024 0 0.01024 0.01024 0.01024 0.01536-0.0256 0.01024-0.1024 0.01024-0.11776 0.03584 0.0256-0.0256 0.08704-0.0256 0.10752-0.0512z m4.34176-0.5376c-1.0496 0.16896-3.40992-0.13824-4.34176 0.5376-0.57344-1.98144 0.29184-2.72896 4.34176-0.5376z m-165.0176 551.7056c-243.61472 0-441.09824-197.4784-441.09824-441.09312 0-243.61472 197.48352-441.10336 441.09824-441.10336 243.6096 0 441.09824 197.48864 441.09824 441.10336s-197.48864 441.09312-441.09824 441.09312z m281.74336-172.30848c-15.19616-0.4608-25.77408-0.49152-37.98528-8.91904-4.92032-3.39968-8.25856-7.90528-14.50496-9.65632-5.60128-1.57696-11.64288-0.19456-17.19296-2.07872-20.03968-6.79936-16.8704-49.72544-43.27424-43.24352-12.40576 3.04128-21.1456 17.70496-27.392 27.27424-5.49888 8.4224-15.5136 15.3856-8.75008 25.92256-3.08736-0.78848-6.3744 0.11264-9.41568-0.46592 4.22912 9.28768 18.42176 8.4736 20.78208 13.22496 5.87776 11.89888-16.18432 13.13792-22.43072 14.79168 7.53152 8.02304 11.3408-2.69824 18.76992-0.88064 7.14752 1.76128-3.7632 11.16672-8.04864 12.22144-1.54112 0.384-26.69056-6.94784-12.12928 6.07744l-53.9136 34.37568c-3.02592-12.7488 23.92064-19.98848 32.72704-24.48384-1.37216-5.26336-9.55904-12.928-15.83104-10.68032-5.89824 2.11968-3.50208 11.904-12.42112 10.91584-6.36416-14.80192 13.46048-10.47552 15.29856-19.54304 2.09408-10.33216-7.49056-5.95456-11.18208-5.77536-0.88064 0.04608-7.75168 7.15776-8.12032 1.77664-0.45056-6.4 10.96192-3.90144 11.76064-10.35776-13.28128-0.5376-20.0704 4.25984-30.87872 11.4432-12.63104 8.38144-19.10272 7.62368-34.57024 7.62368 4.62336 1.90464 10.99264 3.30752 14.9504 6.36928 2.16064 1.66912 10.63936 9.91232 11.20256 11.7504 2.39616 7.94112-0.128 7.33696-7.72608 12.53888-6.75328 4.61824-14.94016 12.90752-23.12192 14.5408-29.63968 5.91872-9.14432-26.76224-31.6416-31.26272 0.384-0.02048 0.79872-0.03584 1.13152-0.03584h-1.29024c0.05632 0.00512 0.10752 0.0256 0.15872 0.03584-5.20704 0.18944-14.96064 1.45408-18.31424-1.29536-2.36544-1.93024-2.56512-9.69728-5.21216-12.50816-4.7104-5.0176-11.72992-6.02112-17.35168-9.64096-5.48864-3.53792-17.58208-12.61056-20.80256-18.76992-11.87328-22.68672 26.752-29.72672 41.3952-36.35712 6.61504-2.9952 25.95328-7.10144 29.55264-12.1088 4.83328-6.72256-4.16256-13.02528 5.92384-17.75104 3.22048-1.50528 9.86112-1.81248 12.64128 1.3056 4.5056 5.07904-1.83296 6.22592-2.91328 12.09344-2.08896 11.29984 1.3568 6.8096 7.03488 11.008 11.58144 8.5504 8.97536 9.07264 4.80768 22.69696-1.93536 6.34368-9.23648 24.04352-2.816 28.7232 8.37632 6.10816 26.22464-3.30752 32.64512-4.096 7.47008-0.91648 11.70944-11.26912 15.77984-15.49824 2.70848-2.81088 7.54688-8.77568 12.26752-8.13056 7.5008 1.024 4.36224 7.5776 8.70912 10.60352 11.66336 8.09472 14.74048-2.89792 19.38944-13.89568 4.37248-10.32704 8.50944-14.1568 16.30208-20.78208 3.61472-3.08224 19.46112-14.08512 17.96608-20.86912-1.01376-4.56704-19.11296-11.49952-23.95648-13.0304-17.69472-5.60128-50.88768 9.17504-54.4512-18.88256 6.8608 2.56 26.38848 18.5088 32.24576 10.95168 2.67264-3.4304-2.11456-8.42752-0.98816-11.83744 3.33824-10.2144 11.2128-6.656 19.4816-5.00736-0.5632-0.34816-1.14688-0.65536-1.75104-0.93184 11.28448 5.80096 10.11712 4.59264 15.29344 13.99808 1.6896 3.072 4.1984 10.51136 6.58432 12.71296 8.20736 7.54688 9.46688 2.35008 14.55104-3.47136 1.3312-1.536 13.89568-19.62496 9.42592-18.72384-14.6176 2.92864-28.65152 2.53952-40.77056-5.4528-6.9888-4.61312-13.58848-10.83904-21.93408-13.9008-1.9968-0.73216-16.80384-2.13504-15.0528 0.38912 2.56 3.68128 11.35104 6.1184 14.8224 10.09152-9.62048 3.95776-17.6384-4.7872-25.1904-9.89696-8.01792-3.79392-9.88672-10.86464-16.71168-17.05984-2.97984-2.70336-8.62208-3.16416-11.5456-6.72256-2.83648-3.45088-3.19488-8.87808-5.87776-12.15488-1.88416-2.29376-6.72256-0.90624-8.69376-4.36736-2.56512-4.51584 2.35008-8.70912 1.26976-11.96544-1.9712-5.9136-13.21984-10.92608-17.54112-15.18592 0.57344 0.55296 1.152 1.1264 1.7152 1.70496-4.33664-4.54656-9.82016-7.88992-13.20448-13.15328 1.55136-7.42912 6.4512-25.14944 5.08416-29.22496-4.5056-13.40928-13.2608 7.296-16.81408 12.6464-12.20096 18.3808-36.58752 6.08256-53.24288 4.5568-21.30432-1.9456-42.16832-29.5936-29.02528-52.03968 6.30784-10.76224 16.91648-14.92992 29.09184-12.43648 10.83392 2.21696 14.08512 17.37216 24.28928 17.64864 18.74432 0.50176 0.41472-18.37056-1.20832-25.2928-1.50016-6.42048 2.33984-7.00928 8.93952-8.6016 4.87936-1.17248 11.78112 2.08384 16.00512-0.70144 2.6624-1.76128 2.5344-11.38176 6.1952-8.3456-7.20896-5.97504-5.52448-20.1472 1.8688-25.27232 8.19712-5.6832 17.84832-0.41984 26.42432-2.60608 16.19968-4.13184 8.46848 1.23904 22.70208 9.8304 9.6 5.78048 11.17696-1.09568 17.7408-1.12128 4.46464-0.02048 7.30112 6.42048 14.7712 4.55168 6.08768-1.54112 8.48896-6.24128 15.75936-7.3216 2.97984-0.44032 6.06208 1.12128 8.89856 0.80896 13.44-1.48992 23.73632-10.08128 34.3296-17.84832 8.7296-6.38976 14.51008-5.09952 24.70912-8.00768 7.4496-2.1248 21.1968-12.90752 20.49024-22.36928-0.12288-1.69472-6.64064-10.20928-7.75168-14.03904 1.90976-1.32096 15.16544 1.6384 19.0464 1.92-1.27488-1.4848-10.30656-7.82848-10.30656-4.45952 0-1.73056 6.38976-5.26848 7.94624-6.3744 4.7104 15.28832 12.44672 5.4528 21.75488 1.664 7.91552-3.22048 17.65888-3.39968 26.10176-5.41184 7.168-1.70496 22.96832-6.53824 28.27776-12.40064 6.38976-7.05024 1.9712-18.49856-2.75968-25.50784-6.17984-9.20064-15.50848-12.72832-19.36896-23.552-3.05152-8.57088-0.75776-17.2288-2.50368-26.74176-2.3552-12.86144-4.24448-8.35072-12.52864-16.19968-6.96832-6.60992-0.11264-5.46304-9.60512-9.68192-9.53856-4.23424-17.93024-2.9696-24.52992-13.42976 0.26112 0.65024 0.48128 1.31072 0.66048 2.00192-2.78016-3.89632-4.17792-11.8784-5.49376-14.49984-3.328-6.6816-7.92064-10.89024-13.184-16.4608-2.01728-2.12992-20.56192-27.46368-21.632-25.43104-1.3824 2.65216-16-2.6624-16.69632 1.12128 0.58368-3.1744-0.13312-2.10944 3.49696-3.9424-3.36384-20.81792-12.17024-23.92576-32.6144-24.13568 1.75616-10.00448-7.40352-8.00768-11.66848-13.3888-2.48832-3.14368-3.68128-11.97568-5.40672-16.04608-1.08032-2.54976-9.0624-12.78976-9.0624-14.8224-0.01024-1.8688 2.68288-4.608 5.21216-7.22944a389.632 389.632 0 0 0-44.04224-6.05696c2.79552 3.52256 3.46624 6.61504-5.43744 7.03488 2.38592 6.4768 7.97696 10.16832 10.34752 16.4352 1.1264 2.95424 0.19456 4.12672 1.14688 7.05536 3.25632 10.12224 1.8432 6.2976 0.00512 14.16192-4.3008 18.41664 1.53088 23.4496 6.54848 40.30976 5.15584 17.3312 4.67968 39.78752 7.98208 58.45504 1.56672 8.9344 4.13184 27.51488 1.02912 35.95776-3.49696 9.50272-18.87232 16.99328-25.91232 23.38816-9.96864 9.08288-15.26784 18.8928-22.67136 30.12608-3.75808 5.69856-8.04352 11.29472-10.97216 17.48992-6.272 13.2608 0.00512 5.37088 1.05984 13.18912 1.01376 7.56224-0.90112 14.32064 2.10432 22.25152 3.31776 8.77056 11.60704 14.23872 14.33088 23.08608 2.45248 7.87456 0.57856 17.77152-7.50592 20.39296-4.5056 1.46944-9.48224-1.92-14.00832-1.17248-6.31808 1.01888-13.4656 5.73952-18.42176 9.50272-6.92224 5.2736-9.51296 13.83424-16.88064 18.83648-6.1696 4.16768-10.55744 1.67424-17.15712 3.61984-6.88128 2.02752-11.13088 10.5216-16.68096 13.17888-8.33024 3.98336-13.02528-1.7408-21.82144-0.57856-7.4752 0.97792-18.88256 9.27232-25.87136 12.39552-14.208 6.35904-22.8608 13.37856-28.544 27.8016-4.864 12.36992-11.96032 18.13504-20.31104 28.43648-8.46336 10.43456-11.1104 19.328-24.15616 22.10816-1.53088 0.3328 3.19488-10.9568 3.68128-11.85792 4.6592-8.63232 11.65824-16.51712 17.29024-24.5504 8.28416-11.83744 4.75648-14.05952-3.67104-2.6112-9.63584 13.09696-20.81792 26.11712-29.17888 39.9872-3.15904 5.23776-2.55488 8.6272-7.76704 13.60384-5.03296 4.80768-11.62752 7.14752-16.69632 11.7248-18.24256 16.4096-21.56032 38.31296-19.4816 61.70624 0.67584 7.62368 3.4304 13.7216 2.21696 21.05344-1.00352 6.08256-4.59776 11.11552-9.08288 15.60064-1.44896 2.304-5.07904 7.98208-5.28896 8.34048-4.14208 6.88128-7.36256 13.64992-13.94688 19.29216-3.77344 3.25632-13.5424 10.8544-22.73792 17.22368 41.32352 51.53792 95.39072 92.38016 157.41952 117.73952 0.49664-3.11808 1.83296-6.23104 3.84-9.21088 5.09952-7.56736 9.9584-6.9632 19.9168-9.0624-1.06496-11.55072-14.57152-11.64288-23.71584-10.3936-10.91584 1.49504-22.39488 5.12-31.8464-4.43904 5.2224-3.13856 19.55328-15.36512 17.64864-2.59072 10.45504 0.52736 20.5568 0.83968 30.78656-0.41472 4.10112-0.50176 17.82784-5.10976 21.55008-3.00544 1.5616 0.88064 3.2256 8.58624 4.87936 10.9568-2.91328-0.01536-6.0416 1.45408-8.94464 1.1776 6.77376 8.66816 13.52192 1.8688 22.13888-2.11968-9.49248-5.76512-3.86048-19.584 5.41696-8.35584 7.62368 9.23648-1.86368 15.92832-11.54048 21.30944 9.75872 12.20608 15.77472 13.30688 24.95488-0.46592 1.5104 8.49408 8.36608 5.0944 15.53408 4.46464v2.1248c-3.15392-0.0768-6.52288 1.7408-9.64608 1.41312 7.30112 11.648 2.64192 14.30528 13.07648 18.10944 8.30976 3.02592 32.01536 0.20992 34.93888 8.01792-16.59392-3.2256-36.63872-3.99872-51.6096-11.54048-6.45632-3.2512-14.14656-13.52192-20.58752-6.84544-6.60992 6.84544 4.72576 17.85856 10.5216 21.21728h-1.38752a390.38976 390.38976 0 0 0 81.34144 8.58112c18.0224 0 35.7376-1.3312 53.12512-3.712-6.02112-3.15904-1.57184-5.29408-5.94944-8.5248-8.3712-6.15424-23.22944-11.2896-33.18784-15.1808 12.66176 0.03072 43.31008-11.87328 49.20832 5.88288l-12.25216 1.88416a107.37664 107.37664 0 0 0 25.06752 12.15488c80.61952-15.9744 152.33024-56.86272 206.88384-114.24256-0.39424 0.01536-0.78336 0.0256-1.15712 0.01536z m71.38816-154.86464c0.72704 1.55136 2.42688 2.05824 3.1232 3.33824 1.46944 2.688 1.14176 4.51072 2.95936 6.81984 1.94048 2.49344 4.56192 3.10272 6.72768 5.05344 0.8704 0.78336 1.36192 1.5104 1.76128 2.2528a387.3536 387.3536 0 0 0 15.46752-56.20736c-0.11264-0.13824-0.1792-0.34816-0.32256-0.4608-0.95232-0.74752-7.13216-1.66912-8.40192-1.71008-4.47488-0.17408-7.80288 2.79552-11.01312 5.59104-3.27168 2.8416-7.12192 6.64064-9.4464 10.3168-2.4832 3.93216-0.95232 7.96672-0.77312 12.45184 0.1536 3.77344-1.67936 9.14944-0.08192 12.55424z m5.04832-202.24512c-7.57248 6.5792-16.512 15.40096-21.89824 23.93088-5.74976 9.088-2.21184 18.44736-1.792 28.86144 0.34816 8.75008-3.92704 21.21216-0.19968 29.10208 1.70496 3.59936 5.62176 4.7872 7.22944 7.73632 3.4304 6.2464 2.66752 10.46528 6.87104 15.83616 4.51072 5.76512 10.57792 7.18336 15.60064 11.70944 5.26336 4.74112 5.12 8.47872 8.448 14.55104 2.44224 4.44416 8.17152 11.84768 13.5936 15.72352 2.944-19.28704 4.47488-39.03488 4.47488-59.12064 0-34.7648-4.62336-68.4544-13.18912-100.55168-7.30112 1.87904-13.312 7.1424-19.13856 12.22144z"  horiz-adv-x="1024" />

    
    <glyph glyph-name="plus" unicode="&#59090;" d="M459.265625 436.734375h-369.140625v-105.46875h369.140625v-369.140625h105.46875v369.140625h369.140625v105.46875h-369.140625v369.140625h-105.46875v-369.140625z"  horiz-adv-x="1024" />

    
    <glyph glyph-name="xinfeng1" unicode="&#59182;" d="M903.6 703.1H120.3L512 423.2zM958.7 703v0.1zM512 344.9l-446.7 319v-599h893.4v599z"  horiz-adv-x="1024" />

    
    <glyph glyph-name="search1" unicode="&#58976;" d="M951.086-9.432999999999993L774.093 167.55999999999995c59.385 70.161 95.193 160.915 95.193 260.033 0 222.418-180.305 402.723-402.723 402.723S63.841 650.01 63.841 427.593 244.146 24.870000000000005 466.564 24.870000000000005c100.997 0 193.309 37.181 264.001 98.598l176.708-176.711c12.1-12.097 31.716-12.097 43.813 0s12.097 31.713 0 43.81zM125.799 427.593c0 188.199 152.564 340.765 340.765 340.765 188.199 0 340.765-152.567 340.765-340.765S654.763 86.827 466.564 86.827c-188.202 0-340.765 152.567-340.765 340.766z"  horiz-adv-x="1024" />

    
    <glyph glyph-name="gotop1" unicode="&#58885;" d="M165.63623046875 285.97734375000005h197.687109375v-296.5306640625h296.5306640625V285.97734375000005h197.687109375L511.588671875 631.92978515625z m0 494.2177734375h691.9048828125V681.3515625H165.63623046875z"  horiz-adv-x="1024" />

    
    <glyph glyph-name="shubiao" unicode="&#58910;" d="M510.897 827.070c-154.649 0-279.975-125.327-279.975-279.975v-321.362c0-154.649 125.327-279.975 279.975-279.975 154.649 0 279.975 125.327 279.975 279.975v321.362c0 154.649-125.327 279.975-279.975 279.975zM734.956 225.603c0-123.641-100.288-223.929-224.058-223.929-123.771 0-223.929 100.288-223.929 223.929v321.621c0 123.641 100.288 223.929 223.929 223.929 123.771 0 224.058-100.288 224.058-223.929v-321.621zM466.527 621.694c0 20.628 19.721 37.364 44.37 37.364 24.521 0 44.37-16.607 44.37-37.364v-111.964c0-20.628-19.721-37.364-44.37-37.364-24.521 0-44.37 16.607-44.37 37.364v111.964z"  horiz-adv-x="1024" />

    
    <glyph glyph-name="fax" unicode="&#58963;" d="M482.5120068816468 528.6877511898056h333.65663840342313v-17.643648642115295H482.5120068816468v17.643648642115295z m0 57.501586343161755h333.65663840342313v-17.643649321049455H482.5120068816468v17.643649321049455z m467.7287129396574-63.89065141696482V731.6142883300781h-584.8451903974637v-209.21730884257704H284.696722343564l0.933786350302398-363.6852443860844h79.56843398697674v-122.32602343149482H950.7321859998628v122.71919691748916h74.55547543521972v363.6852443860844h-74.99779560696334zM433.8076725350693 679.9611541964114l447.92261012457305-0.29488011449575424v-211.33061497192836H433.8076725350693v211.33061497192836zM881.9268694026397 105.63334775995486H433.8076725350693v119.2297842660919H881.9268694026397v-119.2297842660919zM482.5120068816468 638.2356444736943h333.65663840342313v-17.643649321049455H482.5120068816468V638.2356444736943zM261.10632812045515 249.3873125994578h-28.505060082301494a20.838181857950985 20.838181857950985 0 0 0-12.483250033110378 4.914665859192608s-5.406132037751376 18.036822128109634-5.406132037751376 85.81005900353193 5.406132037751376 85.90835237503053 5.406132037751376 85.90835237503053a20.248421628959477 20.248421628959477 0 0 0 12.483250033110378 4.914665180258453h28.210179967805743c4.030025515705347 0 9.829331039451063 3.047092479653656 9.829331039451063 6.831385245546697V515.3690081778914c0 3.7351460801437493-0.6880529215559363 6.831385245546697-4.914665180258453 6.831384566612541h-46.492735524661846a24.86820737365633 24.86820737365633 0 0 1-13.073010262101889-4.472345687448978S164.38571166992188 475.80595059134066 164.38571166992188 340.3086242051794s41.823803094215684-177.3702768450603 41.823803094215684-177.3702768450603a25.507113609462973 25.507113609462973 0 0 1 13.073010262101889-4.374052315950393h46.34529546741396c3.980878829956055 0 4.914665180258453 2.4081862438470125 4.914665180258453 6.880531931295991V242.55592803284526a10.517383961006999 10.517383961006999 0 0 1-9.485304239206014 6.831384566612541z"  horiz-adv-x="1268" />

    
    <glyph glyph-name="prev" unicode="&#59121;" d="M277.312 32h-117.312v704h117.312v-704zM864 736l-498.688-352 498.688-352z"  horiz-adv-x="1024" />

    
    <glyph glyph-name="right" unicode="&#59431;" d="M331.23-60.724000000000046c-6.553 0-13.107 2.492-18.091 7.51-10.001 10.001-10.001 26.214 0 36.215l401.306 401.306-428.339 428.339c-10.001 10.001-10.001 26.214 0 36.215s26.214 10.001 36.215 0l464.521-464.556-437.521-437.555c-4.983-4.983-11.537-7.474-18.091-7.475z"  horiz-adv-x="1024" />

    
    <glyph glyph-name="news-r" unicode="&#59827;" d="M165.75 444.3569999999998l569.565 5.684341886080801e-13 9.947598300641403e-14-111.26500000000001-569.565-5.684341886080801e-13-9.947598300641403e-14 111.26500000000001zM942.2159999999999 388.72300000000047l-207.34799999999984-213.97200000000012-3.979039320256561e-13 427.947 207.34900000000016-213.97499999999985z"  horiz-adv-x="1024" />

    
    <glyph glyph-name="cart" unicode="&#58880;" d="M332.8 105.47199999999998q19.456 0 36.864-7.168t30.208-19.968 20.48-30.208 7.68-36.864-7.68-36.864-20.48-30.208-30.208-20.48-36.864-7.68q-20.48 0-37.888 7.68t-30.208 20.48-20.48 30.208-7.68 36.864 7.68 36.864 20.48 30.208 30.208 19.968 37.888 7.168zM758.784 103.42399999999998q19.456 0 37.376-7.168t30.72-19.968 20.48-30.208 7.68-36.864-7.68-36.864-20.48-30.208-30.72-20.48-37.376-7.68-36.864 7.68-30.208 20.48-20.48 30.208-7.68 36.864 7.68 36.864 20.48 30.208 30.208 19.968 36.864 7.168zM930.816 685.056q28.672 0 44.544-7.68t22.528-18.944 6.144-24.064-3.584-22.016-13.312-37.888-22.016-62.976-23.552-68.096-18.944-53.248q-13.312-40.96-33.28-56.832t-49.664-15.872l-35.84 0-65.536 0-86.016 0-96.256 0-253.952 0 14.336-92.16 517.12 0q49.152 0 49.152-41.984 0-20.48-9.728-35.84t-38.4-14.336l-49.152 0-94.208 0-118.784 0-119.808 0-99.328 0-55.296 0q-20.48 0-34.304 9.216t-23.04 24.064-14.848 32.256-8.704 32.768q-1.024 6.144-5.632 29.696t-11.264 58.88-14.848 78.848-16.384 87.552q-19.456 103.424-44.032 230.4l-76.8 0q-15.36 0-25.6 7.68t-16.896 18.432-9.216 23.04-2.56 22.528q0 20.48 13.824 33.792t37.376 12.288l103.424 0q20.48 0 32.768-6.144t19.456-15.36 10.24-18.944 5.12-16.896q2.048-8.192 4.096-23.04t4.096-30.208q3.072-18.432 6.144-38.912l700.416 0zM892.928 593.9200000000001l-641.024 2.048 35.84-185.344 535.552-1.024z"  horiz-adv-x="1028" />

    
    <glyph glyph-name="chahao" unicode="&#58907;" d="M794.8 30.4L512 313.3 229.2 30.4l-70.7 70.7L441.3 384 158.4 666.8l70.7 70.7L512 454.7l282.8 282.8 70.7-70.7L582.7 384l282.8-282.8-70.7-70.8z"  horiz-adv-x="1024" />

    
    <glyph glyph-name="arrow-down" unicode="&#58882;" d="M759.5423145294187 557.9165782928468l45.00523567199709-43.478822708129854-302.8268909454344-304.35253143310564-302.82689094543474 304.35253143310524 45.00523567199705 43.478822708129904 257.82242774963396-256.2967872619628z"  horiz-adv-x="1024" />

    
    <glyph glyph-name="youjiantou1" unicode="&#58896;" d="M33.983285559835394 341.37896715588477L844.3269608823044 341.37896715588477 637.3996785040327 142.17610834172842c-5.296905397201645-5.298286238024694-5.296905397201645-13.885735316543212 4.905732080279064e-15-19.185402395390945l41.56330877366258-41.564689614485566a13.569522768065841 13.569522768065841 0 0 1 19.186783236213994 9.811464160558128e-15l260.49009790419734 250.77312103242812c0.2996424586008229 0.2526938706172841 0.5965232355555554 0.5136727861728396 0.879595604279835 0.7953643140740744l1.3918875496296288 1.39188754962963 40.174182905679 38.67320893102883a13.530859225020574 13.530859225020574 0 0 1 3.9381580273250956 10.328689356378598 13.523955020905348 13.523955020905348 0 0 1-3.935396345679019 10.353544491193414l-41.56607045530864 40.06509648065842c-0.2692639604938272 0.26374059720164594-0.5495746475720168 0.5109111045267488-0.8312661754732514 0.7511774077366251l-260.53980817382717 250.8159270979422a13.56676108641975 13.56676108641975 0 0 1-19.186783236213994-9.811464160558128e-15l-41.56607045530862-41.56607045530865c-5.296905397201645-5.296905397201647-5.296905397201645-13.885735316543212 9.811464160558128e-15-19.186783236213994L842.3854986851029 427.28797896164633l-808.3994514436214-3.139668531378601e-13c-7.492442305843622-2.452866040139532e-15-13.565380245596698-6.072937939753094-13.565380245596698-13.56399940477367l2.4528660401395314e-14-58.783774677860066c4.292515570244181e-15-7.489680624197531 6.072937939753094-13.565380245596698 13.565380245596714-13.565380245596698l-0.002761681646090537 0.004142522469135801z"  horiz-adv-x="1024" />

    
    <glyph glyph-name="google1" unicode="&#58892;" d="M603.0711660130821-11.5078125c117.65912861824036 0 206.3606552696228 38.50387825012207 275.75152301788324 110.83077120780943 71.45447379112244 71.53836084365844 93.63405057907104 171.68199880599974 93.63405057907104 252.73308265686035a353.581367225647 353.581367225647 0 0 1-5.788164911270142 67.5956979560852H603.0711660130821v-108.028964509964h258.47091533660887c-7.717553215026855-60.76734131813049-28.05162720680237-105.12649334907533-58.72051114082336-135.99670466423035-37.68179131507873-37.53079539299011-96.4358572769165-79.08814072608948-199.64974050521852-79.08814072608948-159.1158094882965 0-283.5361851024628 128.2791522216797-283.5361851024628 287.4117383480072s124.43715302467344 287.4956254005432 283.5361851024628 287.4956261730194c85.78227885246278 0 148.5628947544098-33.8397921180725 194.7843262195587-77.17552983283997l76.2192243862152 76.18566956520081c-64.65967197418212 61.63975971221924-150.44195082664487 109.05237882614136-271.0035506057739 109.05237882614136C385.0502946408589 779.3735939884186 201.82552083333337 602.03764878273 201.82552083333337 383.9328911304475s183.22477380752562-395.4407036304474 401.2456451797486-395.4407036304474zM1416.2495903905228 362.91094794273386h-121.18235933303833V484.0933065032959h-89.32228697776794v-121.18235856056214h-121.18235856056214v-89.32228697776794h121.18235856056214v-104.40507010459899h89.32228697776794v104.40507010459899h121.18235933303833v89.32228697776794z"  horiz-adv-x="1572" />

    
    <glyph glyph-name="arrow-right" unicode="&#59183;" d="M338.0834217071532 631.5423145294187l43.47882270812986 45.005235671997085 304.3525314331055-302.82689094543446-304.3525314331053-302.8268909454347-43.478822708129904 45.005235671997056 256.29678726196283 257.82242774963396z"  horiz-adv-x="1024" />

    
    <glyph glyph-name="news-l" unicode="&#59828;" d="M900.9166666666667 323.64300000000026l-569.565-7.958078640513122e-13-1.3500311979441904e-13 111.26500000000001 569.565 7.958078640513122e-13 1.3500311979441904e-13-111.26500000000001zM124.45066666666676 379.2769999999996l207.3479999999998 213.97200000000018 5.400124791776761e-13-427.947-207.3490000000002 213.9749999999998z"  horiz-adv-x="1024" />

    
    <glyph glyph-name="arrow-left" unicode="&#59829;" d="M685.9165782928468 136.45768547058128l-43.47882270812985-45.0052356719971-304.35253143310564 302.82689094543434 304.3525314331052 302.8268909454348 43.47882270812992-45.00523567199704-256.29678726196283-257.82242774963396z"  horiz-adv-x="1024" />

    
    <glyph glyph-name="music-play" unicode="&#58889;" d="M512-128C229.2-128 0 101.20000000000005 0 384S229.2 896 512 896s512-229.2 512-512S794.8-128 512-128zM512 864C245.9 864 32 650.1 32 384s213.9-480 480-480c266.2 0 480 213.9 480 480C992 650.1 778.1 864 512 864zM768 384L384 160 384 608 768 384z"  horiz-adv-x="1024" />

    
    <glyph glyph-name="jiantou" unicode="&#59123;" d="M744.728 230.89200000000005l73.12 0 138.51 152.47-138.51 153.75-73.12 0 112.5-125.68L67.64 411.432l0-54.86 789.588 0L744.728 230.89200000000005z"  horiz-adv-x="1024" />

    
    <glyph glyph-name="youjiantou" unicode="&#59830;" d="M542.03449942 821.16101836L948.49445938 414.7010584c0.44999737-0.33749825 1.01249385-0.44999737 1.29374208-0.89999473a41.62473984 41.62473984 0 0 0 12.20617354-29.98106191 41.68098983 41.68098983 0 0 0-12.20617354-30.14981193c-0.33749825-0.33749825-0.89999473-0.44999737-1.29374209-0.78749472L542.54074677-53.07101836000004a42.74973281 42.74973281 0 0 0-60.41212294-0.89999385 42.91848193 42.91848193 0 0 0 0.7874956 60.58087119l335.07915557 335.02290645L105.2559793 341.63276542999995c-23.90610058 0-43.2559793 18.89988222-43.2559793 42.18723633s19.40612871 42.18723633 43.3122293 42.18723633l712.6830457 0-335.52915292 335.52915293a42.74973281 42.74973281 0 0 0-0.78749474 60.41212207 42.63723369 42.63723369 0 0 0 60.35587207-0.78749473z"  horiz-adv-x="1024" />

    
    <glyph glyph-name="xiazai" unicode="&#58903;" d="M887.432 238.44500000000005L856.82 71.548h-688l-30.61 166.897H61.683v-266.019h903.004V238.44500000000005h-77.255z m-18.95 297.36h-226.66v96.198H383.818v-96.93H160.072l352.02-376.07 356.39 376.801zM641.822 798.173H383.818v-34.983h258.004V798.174z m0-65.595H383.818v-67.048h258.004v67.048z m0 0"  horiz-adv-x="1024" />

    
    <glyph glyph-name="youjiancopy" unicode="&#58904;" d="M116.4921875 553.50334788h941.68526782v-527.34374948a37.6674109 37.6674109 0 0 0-37.6674109-37.6674109H154.1595984a37.6674109 37.6674109 0 0 0-37.6674109 37.6674109V553.50334788z m470.8426343-226.00446385L1058.17745532 553.50334788H116.4921875l470.8426343-226.00446385zM587.33482181 779.5078125L1058.17745532 553.50334788H116.4921875z"  horiz-adv-x="1219" />

    
    <glyph glyph-name="zoujiantou1" unicode="&#59831;" d="M990.01671444 426.62103284L179.67303912 426.62103284 386.6003215 625.8238916600001c5.2969054 5.29828624 5.2969054 13.88573532 0 19.18540239l-41.56330878 41.56468962a13.56952277 13.56952277 0 0 1-19.18678323 0l-260.49009791-250.77312103c-0.29964246-0.25269386-0.59652324-0.51367279-0.8795956-0.79536432l-1.39188755-1.39188755-40.17418291-38.67320893a13.53085923 13.53085923 0 0 1-3.93815803-10.32868936 13.52395502 13.52395502 0 0 1 3.93539635-10.35354449l41.56607046-40.06509648c0.26926396-0.2637406 0.54957465-0.5109111 0.83126617-0.7511774l260.53980818-250.81592711a13.56676109 13.56676109 0 0 1 19.18678324 1e-8l41.56607045 41.56607045c5.2969054 5.2969054 5.2969054 13.88573532 1e-8 19.18678324L181.61450131 340.71202103999997l808.39945145 0c7.49244232 0 13.56538025 6.07293793 13.56538024 13.56399939l0 58.78377468c0 7.48968063-6.07293793 13.56538025-13.56538024 13.56538026l0.00276168-0.00414253z"  horiz-adv-x="1024" />

    
    <glyph glyph-name="24hour" unicode="&#58915;" d="M649.745 222.85000000000002l31.413 31.378L814.23 121.005l-31.413-31.377zM631.7 204.79999999999995l-20.2-20.2c-33-33.1-86.6-33.1-119.6 0L312.4 364.1c-33.1 33.1-33 86.6 0 119.7l20.2 20.2-133 133c-96.1-99.4-95.2-257.7 2.9-355.9l206.4-206.4c98.1-98.1 256.5-99 355.9-2.8L631.7 204.79999999999995zM350.5 521.9l31.5 31.4-133.2 133.1-31.4-31.4zM818 692.1l16.3-116.8L725 619.6zM780.3 683.7c-59.7 52.5-138 84.3-223.7 84.3-94.5 0-179.9-38.7-241.5-101l39.2-39.2c51.5 52.3 123 84.9 202.2 84.9 67.9 0 130.3-23.9 179.1-63.7l44.7 34.7zM847 604.2l3.7-26.6 4-28.5-26.6 10.8-25.3 10.3c24-41.6 37.7-89.9 37.7-141.4 0-79.2-32.5-150.8-84.9-202.3l39.1-39.1c62.4 61.5 101.1 146.9 101.1 241.4C895.8 493 878 553 847 604.2zM565.6 425.8H436.4c1.5 12.8 6 24.7 13.5 36 7.5 11.2 21.6 24.5 42.2 39.8 12.6 9.4 20.7 16.5 24.2 21.4 3.5 4.9 5.3 9.5 5.3 13.8 0 4.7-1.7 8.8-5.2 12.1-3.5 3.4-7.9 5-13.2 5-5.5 0-10-1.7-13.5-5.2s-5.8-9.6-7-18.3l-43.1 3.5c1.7 12.1 4.8 21.6 9.3 28.4 4.5 6.8 10.9 12 19.1 15.6 8.2 3.6 19.6 5.5 34.1 5.5 15.2 0 26.9-1.7 35.4-5.2 8.4-3.4 15.1-8.7 19.9-15.9 4.9-7.2 7.2-15.2 7.2-24.1 0-9.4-2.8-18.5-8.3-27.1-5.5-8.6-15.6-18-30.2-28.3-8.7-6-14.5-10.2-17.4-12.6-2.9-2.4-6.4-5.5-10.3-9.4h67.2v-35zM658 454.8h-78.5v35.4l78.5 93.3h37.5v-95.3H715v-33.4h-19.5v-29H658v29z m0 33.4V537l-41.5-48.8H658zM436.4 398.3h23.7v-26.9h26v26.9H510v-76.9h-23.9v31.1h-26v-31.1h-23.7v76.9zM521.7 349.1c0 8.5 2.9 15.5 8.6 21 5.7 5.5 13.5 8.3 23.2 8.3 11.2 0 19.6-3.2 25.3-9.7 4.6-5.2 6.9-11.6 6.9-19.2 0-8.6-2.9-15.6-8.5-21.1-5.7-5.5-13.5-8.2-23.6-8.2-8.9 0-16.2 2.3-21.7 6.8-6.8 5.6-10.2 13-10.2 22.1z m21.4 0.1c0-5 1-8.6 3-11 2-2.4 4.5-3.6 7.6-3.6 3.1 0 5.6 1.2 7.6 3.5 2 2.4 2.9 6.1 2.9 11.3 0 4.8-1 8.4-3 10.8-2 2.3-4.5 3.5-7.4 3.5-3.1 0-5.7-1.2-7.7-3.6-2-2.4-3-6.1-3-10.9zM654.7 321.4h-19.9v9c-3-3.7-6-6.4-9-7.9-3-1.6-6.7-2.3-11.1-2.3-5.9 0-10.5 1.8-13.8 5.3-3.3 3.5-5 8.9-5 16.2v35.5h21.5v-30.6c0-3.5 0.6-6 2-7.5 1.3-1.5 3.1-2.2 5.4-2.2 2.5 0 4.6 1 6.3 2.9 1.6 1.9 2.4 5.5 2.4 10.5v26.8h21.3v-55.7zM667.8 377.1h20v-9.1c1.9 3.9 3.9 6.7 6 8.2 2 1.5 4.6 2.2 7.6 2.2 3.2 0 6.6-1 10.3-3l-6.6-15.2c-2.5 1-4.5 1.6-6 1.6-2.8 0-5-1.1-6.5-3.5-2.2-3.2-3.3-9.3-3.3-18.2v-18.7h-21.5v55.7z"  horiz-adv-x="1024" />

    


  </font>
</defs>
</svg>
